/* XPM */
static char *e8cf91f403f143f1f943a72ebba39b76[] = {
/* columns rows colors chars-per-pixel */
"64 64 256 2 ",
"   c black",
".  c #0000A8",
"X  c #00A800",
"o  c #00A8A8",
"O  c #A80000",
"+  c #A800A8",
"@  c #A85400",
"#  c gray66",
"$  c gray33",
"%  c #5454FC",
"&  c #54FC54",
"*  c #54FCFC",
"=  c #FC5454",
"-  c #FC54FC",
";  c #FCFC54",
":  c gray99",
">  c #ECECEC",
",  c gainsboro",
"<  c #D0D0D0",
"1  c #C0C0C0",
"2  c #B4B4B4",
"3  c gray66",
"4  c #989898",
"5  c gray55",
"6  c #7C7C7C",
"7  c gray44",
"8  c #646464",
"9  c gray33",
"0  c #484848",
"q  c gray22",
"w  c #2C2C2C",
"e  c #202020",
"r  c #FC0000",
"t  c #EC0000",
"y  c #E00000",
"u  c #D40000",
"i  c #C80000",
"p  c #BC0000",
"a  c #B00000",
"s  c #A40000",
"d  c #980000",
"f  c #880000",
"g  c #7C0000",
"h  c #700000",
"j  c #640000",
"k  c #580000",
"l  c #4C0000",
"z  c #400000",
"x  c #FCD8D8",
"c  c #FCB8B8",
"v  c #FC9C9C",
"b  c #FC7C7C",
"n  c #FC5C5C",
"m  c #FC4040",
"M  c #FC2020",
"N  c #FC0000",
"B  c #FCA85C",
"V  c #FC9840",
"C  c #FC8820",
"Z  c #FC7800",
"A  c #E46C00",
"S  c #CC6000",
"D  c #B45400",
"F  c #9C4C00",
"G  c #FCFCD8",
"H  c #FCFCB8",
"J  c #FCFC9C",
"K  c #FCFC7C",
"L  c #FCF85C",
"P  c #FCF440",
"I  c #FCF420",
"U  c #FCF400",
"Y  c #E4D800",
"T  c #CCC400",
"R  c #B4AC00",
"E  c #9C9C00",
"W  c #848400",
"Q  c #706C00",
"!  c #585400",
"~  c #404000",
"^  c #D0FC5C",
"/  c #C4FC40",
"(  c #B4FC20",
")  c #A0FC00",
"_  c #90E400",
"`  c #80CC00",
"'  c #74B400",
"]  c #609C00",
"[  c #D8FCD8",
"{  c #BCFCB8",
"}  c #9CFC9C",
"|  c #80FC7C",
" . c #60FC5C",
".. c #40FC40",
"X. c #20FC20",
"o. c #00FC00",
"O. c #00FC00",
"+. c #00EC00",
"@. c #00E000",
"#. c #00D400",
"$. c #04C800",
"%. c #04BC00",
"&. c #04B000",
"*. c #04A400",
"=. c #049800",
"-. c #048800",
";. c #047C00",
":. c #047000",
">. c #046400",
",. c #045800",
"<. c #044C00",
"1. c #044000",
"2. c #D8FCFC",
"3. c #B8FCFC",
"4. c #9CFCFC",
"5. c #7CFCF8",
"6. c #5CFCFC",
"7. c #40FCFC",
"8. c #20FCFC",
"9. c #00FCFC",
"0. c #00E4E4",
"q. c #00CCCC",
"w. c #00B4B4",
"e. c #009C9C",
"r. c #008484",
"t. c #007070",
"y. c #005858",
"u. c #004040",
"i. c #5CBCFC",
"p. c #40B0FC",
"a. c #20A8FC",
"s. c #009CFC",
"d. c #008CE4",
"f. c #007CCC",
"g. c #006CB4",
"h. c #005C9C",
"j. c #D8D8FC",
"k. c #B8BCFC",
"l. c #9C9CFC",
"z. c #7C80FC",
"x. c #5C60FC",
"c. c #4040FC",
"v. c #2024FC",
"b. c #0004FC",
"n. c #0000FC",
"m. c #0000EC",
"M. c #0000E0",
"N. c #0000D4",
"B. c #0000C8",
"V. c #0000BC",
"C. c #0000B0",
"Z. c #0000A4",
"A. c #000098",
"S. c #000088",
"D. c #00007C",
"F. c #000070",
"G. c #000064",
"H. c #000058",
"J. c #00004C",
"K. c #000040",
"L. c #282828",
"P. c #FCE034",
"I. c #FCD424",
"U. c #FCCC18",
"Y. c #FCC008",
"T. c #FCB400",
"R. c #B420FC",
"E. c #A800FC",
"W. c #9800E4",
"Q. c #8000CC",
"!. c #7400B4",
"~. c #60009C",
"^. c #500084",
"/. c #440070",
"(. c #340058",
"). c #280040",
"_. c #FCD8FC",
"`. c #FCB8FC",
"'. c #FC9CFC",
"]. c #FC7CFC",
"[. c #FC5CFC",
"{. c #FC40FC",
"}. c #FC20FC",
"|. c #FC00FC",
" X c #E000E4",
".X c #C800CC",
"XX c #B400B4",
"oX c #9C009C",
"OX c #840084",
"+X c #6C0070",
"@X c #580058",
"#X c #400040",
"$X c #FCE8DC",
"%X c #FCE0D0",
"&X c #FCD8C4",
"*X c #FCD4BC",
"=X c #FCCCB0",
"-X c #FCC4A4",
";X c #FCBC9C",
":X c #FCB890",
">X c #FCB080",
",X c #FCA470",
"<X c #FC9C60",
"1X c #F0945C",
"2X c #E88C58",
"3X c #DC8854",
"4X c #D08050",
"5X c #C87C4C",
"6X c #BC7848",
"7X c #B47044",
"8X c #A86840",
"9X c #A0643C",
"0X c #9C6038",
"qX c #905C34",
"wX c #885830",
"eX c #80502C",
"rX c #744C28",
"tX c #6C4824",
"yX c #5C4020",
"uX c #543C1C",
"iX c #483818",
"pX c #403018",
"aX c #382C14",
"sX c #28200C",
"dX c #600064",
"fX c #006464",
"gX c #006060",
"hX c #00001C",
"jX c #00002C",
"kX c #302410",
"lX c #480048",
"zX c #500050",
"xX c #000034",
"cX c gray11",
"vX c #4C4C4C",
"bX c gray36",
"nX c gray25",
"mX c gray19",
"MX c #343434",
"NX c #D8F4F4",
"BX c #B8E8E8",
"VX c #9CDCDC",
"CX c #74C8C8",
"ZX c #48C0C0",
"AX c #20B4B4",
"SX c #20B0B0",
"DX c #00A4A4",
"FX c #009898",
"GX c #008C8C",
"HX c #008484",
"JX c #007C7C",
"KX c #007878",
"LX c #007474",
"PX c #007070",
"IX c #006C6C",
"UX c #980088",
/* pixels */
"q q q q q q q q q q q q q q q q q q q q q q q q q q q q q q q q q q q q q q q q q q q q q q q q q q q q q q q q q q q q q q q q ",
"w L.0 pXw w aXw aXaXaXpXL.L.aXw w w pXw aXL.aXw L.L.aXw aXaXaXpXL.L.aXw w w pXaXL.L.aXaXL.L.w pXL.L.aXL.aXL.aXw w w aXaXaXaXaXq ",
"w w 8 5 w pXw pXpXaXL.w q L.L.q 8 5 pXw aXaXaXw 0 L.w pXpXaXL.8 5 L.L.q q pXpXaXnXL.w pXL.8 5 w q L.w L.L.aXL.q q pXaX8 5 L.aXq ",
"aXaX0 8 aXaXpXpXpXL.aXaXw w aXw 0 8 aXw aXaXaXw pXiXpXpXpXL.aX0 8 w aXw pXpXaXpXw iXaXaXaX0 8 w w w aXL.aXaXaXw pXpXaX0 8 aXaXq ",
"L.L.aXaXaXpXpXaXpXpXw q pXpXaXpXpXpXq w aXaXaXw w iXpXaXpXpXw q pXpXaXpXpXpXq w w aXaXaXaXaXw pXaXpXpXw L.L.aXpXpXpXw w w w w q ",
"aXaXaXaXaX                                                                                                        sXw w aXL.aXq ",
"w w w w w   kXkXkXcXsXsXcXcXsXcXkXkX  eXsXsXsXcXkXaXkXkXkXcXkX  eXcXsXcXkXkXsXkXcXaXsXkX  eXkXcXcXcXsXcXsXsXsXcXe nXaXL.L.aXaXq ",
"L.L.q pXw   cXuXuXuXuXtXuXtXiXuXyXpXsX8XuXuXtXuXyXyXuXyXyXuXpXsX8XiXyXtXyXtXyXuXtXuXuXpXsX8XtXiXyXtXyXuXuXuXuXuXnXvXq aXL.L.aXq ",
"L.L.aXL.L.  cXuXuXyXuXyXiXuXyXyXtXpXsX8XtXyXtXuXyXuXiXuXyXyXpXsX8XuXyXtXiXyXyXuXyXiXuXpXsX8XyXuXyXtXiXtXyXyXuXuXnXvXw pXq L.L.q ",
"aXaXL.aXw   sXuXpXuXyXuXpXyXyXyXtXpXsX8XyXyXyXuXyXyXuXuXiXtXpXsX8XiXyXwXuXtXuXuXyXuXyXpXsX8XyXiXyXwXuXyXiXyXyXtXnXnXL.L.aXL.L.q ",
"L.L.aXaXL.  cXuXuXuXuXtXuXuXtXyXyXpXsX8XyXtXtXiXyXuXiXuXyXtXpXsX8XuXyXtXyXtXuXyXyXuXuXpXsX8XtXuXyXtXyXuXuXyXuXyXnXnXw aXL.aXaXq ",
"aXaXL.aXL.  sXiXuXuXiXyXuXuXtXyXuXpXsX8XyXtXtXtXyXuXuXyXuXtXpXsX8XuXyXtXyXyXuXyXiXyXuXpXsX8XtXuXyXtXyXuXuXyXuXuXnXq L.aXaXL.L.q ",
"L.L.L.L.w   cXyXiXuXyXuXuXyXtXyXyXpXsX8XyXuXyXyXuXuXuXyXyXyXpXsX8XyXyXyXyXtXuXyXiXuXyXpXsX8XtXyXyXyXyXyXyXuXyXtXnXvXL.aXL.aXaXq ",
"w aXw aXpX  sXyXiXyXuXiXyXyXtXyXtXpXsX8XuXyXuXuXtXuXtXyXyXyXpXsX8XyXuXyXuXtXiXiXuXuXiXpXsX8XtXyXuXyXuXyXyXtXtXyXnXvXw L.L.L.L.q ",
"aXL.L.w pX  cXyXyXuXyXiXuXyXyXyXyXpXsX8XyXyXuXtXyXyXyXtXyXyXpXsX8XyXyXuXyXtXuXuXuXuXuXpXsX8XtXyXyXuXyXuXyXtXtXiXnXnXpXaXw aXw q ",
"L.L.q w aX  cXyXuXyXw rXyXyXuXuXiXpXsX8XiXuXuXyXyXyXuXyXuXyXpXsX8XyXtXyXiXtXuXuXpXuXyXpXsX8XyXyXtXyXiXuXyXyXyXuXnXnXpXw L.L.aXq ",
"pXpXw w pX  kXyXiXtXaXiXyXiXyXuXiXpXsX8XiXiXuXyXyXuXtXuXyXuXpXsX8XyXtXyXuXyXuXuXuXyXuXpXsX8XyXyXtXyXuXuXtXyXtXuXnXnXaXw q L.L.q ",
"w w 8 5 w   cXtXpXuXpXuXyXuXuXyXyXpXsX8XiXiXyXuXyXyXyXyXuXiXpXsX8XyXuXiXuXtXuXuXuXuXuXpXsX8XiXyXuXiXuXyXuXiXiXuXnXvXpX8 5 pXpXq ",
"L.L.0 8 aX  cXwXpXuXiXuXyXiXyXyXyXpXsX8XuXpXyXtXyXuXyXyXyXiXpXsX8XuXyXyXuXtXtXtXyXuXuXpXsX8XuXuXyXyXuXtXuXiXiXyX0 vXw 0 8 w w q ",
"aXL.L.aXaX  cXwXiXuXuXuXuXyXyXtXuXpXsX8XuXuXuXtXuXuXuXyXyXiXpXsX8XyXyXyXuXtXuXtXuXyXuXpXsX8XiXyXyXyXuXtXuXuXpXyXnXq aXL.aXL.L.q ",
"iXaXpXaXaX  sXwXuXuXyXuXuXyXuXtXuXpXsX8XuXuXuXtXtXuXyXuXyXiXpXsX8XyXtXuXyXtXuXyXiXyXuXpXsX8XyXyXtXuXyXtXyXuXuXuXnXq aXaXL.L.aXq ",
"w aXw aXaX  sXwXyXtXyXyXuXiXuXyXiXpXsX8XyXiXuXtXtXuXuXuXyXiXpXsX8XuXtXuXyXtXtXuXuXuXaXpXsX8XyXuXtXuXyXtXyXuXuXuXnXnXaXaXpXaXiXq ",
"L.L.L.iXaX  cXtXuXtXyXuXuXiXuXyXuXpXsX8XtXyXiXyXtXyXyXiXyXiXpXsX8XuXyXiXyXyXuXtXuXuXtXpXsX8XiXuXyXiXyXwXuXyXiXuXnXvXaXaXw aXw q ",
"L.L.nXw w nXw w nXw w   iXiXiXtXiXpXsX8XuXuXiXyXtXuXyXiXuXuXpXsX8XuXyXuXyXtXyXtXuXiXyXpXsX8XiXuXyXuXyXtXiXtXyXiXnXvXaXiXL.L.L.q ",
"L.aXpXw iXaXpXw aXpXw   sXiXyXyXiXpXsX8XuXuXuXuXtXiXtXyXuXiXpXsX8XiXyXwXuXtXuXuXyXuXyXpXsX8XyXiXyXwXuXyXiXyXyXpXnXvXw w nXL.L.q ",
"w pXiXaXL.pXaXL.L.w q   kXiXuXyXiXpXsX8XyXiXuXuXyXtXtXyXuXiXpXsX8XuXyXtXiXyXyXuXyXiXuXpXsX8XyXuXyXtXiXtXyXyXuXuXnXvXw pXaXaXL.q ",
"w w aXL.L.pXpXL.aXaXpX  cXiXiXyXpXpXsX8XtXyXiXuXyXyXtXtXuXuXpXsX8XiXyXtXyXtXyXuXtXuXuXpXsX8XtXiXyXtXyXuXuXuXuXuXnXnXq aXpXpXw q ",
"iXw pXL.aX2 2 8 e pXpX  cXyXuXyXiXpXsX8XtXyXuXyXyXyXtXtXyXiXpXsX8XiXyXtXyXtXyXtXtXyXuXpXsX8XyXiXyXtXyXuXuXuXuXuX0 vXpXpXpXw w q ",
"w w aXaXL.2 5 8 cXw aXuXw bXvXvXvXvXvXvXnXvXvXvXvXnXq q vXvXnXvXvXvXnXvXvXbXvXvXvXvXvXvXnXvXvXvXvXnXq q vXvXnXnXnXvXiXw aXw iXq ",
"L.aXL.aXaX2 5 8 cXL.aXaXpXpXaXpXaXw aXw aXaXaXw w iXpXaXpXpXw q pXpXaXpXpXpXq w w aXaXaXaXaXw pXaXpXpXw L.L.w L.w q aXL.L.w w q ",
"iXL.L.w aX2 5 8 cXaXL.w w w aXw pXw w w aXaXaXw pXiXpXpXpXL.aXaXw w aXw pXpXaXpXw iXaXaXaXL.pXw w w aXL.aXaXaXL.pXaXL.L.L.aXL.q ",
"w L.q w pX2 5 8 cXaXiXw iXw w w aXL.aXw w w q L.aXaXaXiXw iXL.w iXw w L.L.L.w iXaXL.w pXL.aXw L.aXL.aXL.L.aXaXL.L.L.pXw L.L.iXq ",
"iXpXw aXq 2 5 8 cXaXpXL.L.w pXw 8 5 aXw L.L.aXw aXaXaXpXL.L.aX8 5 w pXaXL.L.aXaXL.L.w pXL.8 5 L.aXL.aXL.L.L.aXL.L.L.pX8 5 L.w q ",
"aXaXL.aXw 2 5 8 cXL.w q L.pXpXw 0 8 aXw 0 L.w pXpXaXL.w q L.L.0 8 pXpXaXnXL.w pXL.aXaXw q 0 8 L.L.aXL.aXq L.L.L.nXL.q 0 8 pXiXq ",
"aXaXaXL.pX2 5 8 cXaXpXL.aXpXaXw aXaXaXw pXiXpXpXpXL.aXaXw w aXw pXpXaXpXw iXaXaXaXL.pXw w w aXL.aXaXaXL.pXaXL.L.w iXw aXL.aXaXq ",
"aXaXpXL.L.8 8 8 cXw iXpXw pXq w aXaXaXw w iXpXaXpXpXw q pXpXaXpXpXpXq w w aXaXaXaXaXw pXaXpXpXw L.L.w L.w q aXL.w aXpXL.aXaXaXq ",
"L.w pXL.L.e cXcXcXaXaX                                                                                            sXpXpXpXaXaXq ",
"q aXw aXq L.w aXL.w pX  sXsXaXaXaXkX  eXsXaXaXaXaXaXaXaXaXaXkX  eXaXaXaXsXaXaXaXaXaXaXkX  eXaXaXaXaXaXaXaXaXaXaXw q aXpXpXw L.q ",
"w L.L.L.pXaXiXiXaXiXiX  cXiXyXpXyXpXsX8XyXiXuXyXyXtXtXuXuXuXpXsX8XuXiXiXtXtXuXyXuXuXyXpXsX8XuXuXiXiXtXiXyXtXyXuXnXvXpXpXw aXq q ",
"w L.0 pXw 0 pXw 0 pXw   cXuXyXiXyXpXsX8XiXuXuXyXtXtXyXuXiXuXpXsX8XuXiXyXyXyXuXyXiXuXuXpXsX8XyXuXiXyXyXiXyXtXyXuXnXvXiXiXL.L.w q ",
"w w w w w               cXyXyXiXyXpXsX8XuXuXuXtXiXtXyXuXiXuXpXsX8XuXiXuXyXtXuXuXpXuXiXpXsX8XyXuXiXuXyXiXyXwXuXyXnXvXw pX0 L.w q ",
"aXaXaXaXaX  sXcXcXcXcXcXcXiXtXiXyXpXsX8XuXiXyXtXuXyXiXuXuXiXpXsX8XyXiXiXyXtXuXuXiXuXuXpXsX8XyXyXiXiXyXpXyXtXiXtX0 vXw w w w w q ",
"L.L.aXaXaX  cXuXtXyXuXuXiXuXyXuXyXpXsX8XyXiXyXtXyXyXiXyXiXiXpXsX8XyXyXuXyXtXuXuXuXuXuXpXsX8XiXyXyXuXyXiXuXtXiXtXnXvXaXaXaXaXaXq ",
"aXaXaXaXaX  sXyXtXyXyXuXiXuXyXiXyXpXsX8XiXuXtXtXuXuXuXyXiXiXpXsX8XuXyXuXuXyXuXuXuXyXuXpXsX8XyXuXyXuXuXiXeXtXw uXnXq aXaXaXL.L.q ",
"w w w w w   cXuXuXyXuXuXyXuXtXuXyXpXsX8XuXuXtXtXuXyXuXyXiXiXpXsX8XyXuXuXyXtXuXuXpXuXyXpXsX8XyXyXuXuXyXpXuXtXuXiXnXvXaXaXaXaXaXq ",
"w pXpXaXq   kXyXyXuXyXiXuXyXyXyXyXpXsX8XyXyXuXtXyXyXyXtXyXyXpXsX8XyXyXuXyXtXuXuXuXuXuXpXsX8XtXyXyXuXyXuXyXtXtXiX0 bXw w w w w q ",
"w w 8 5 pX  cXyXiXyXuXiXyXyXtXyXtXpXsX8XuXyXuXyXtXuXtXyXyXyXpXsX8XyXuXyXuXtXiXiXuXuXiXpXsX8XtXyXuXyXuXyXyXtXtXtXnXnXaX8 5 aXL.q ",
"iXw 0 8 pX  cXyXiXuXyXuXuXyXtXyXyXpXsX8XyXuXyXuXuXuXuXyXyXyXpXsX8XyXyXyXyXtXuXyXiXuXyXpXsX8XtXyXyXyXyXyXyXuXyXyXnXnXw 0 8 L.aXq ",
"w w q w pX  cXiXuXuXiXtXuXuXtXyXuXpXsX8XyXtXtXtXyXuXuXyXuXtXpXsX8XyXtXuXuXyXuXyXiXyXuXpXsX8XtXyXtXuXuXtXuXyXuXuXnXnXaXpXnXL.w q ",
"L.aXL.aXaX  sXuXuXuXuXyXuXuXtXyXyXpXsX8XyXtXtXyXyXuXiXuXyXtXpXsX8XyXyXiXuXtXuXyXyXuXyXpXsX8XyXyXyXiXuXtXyXyXuXtX0 vXpXw q w w q ",
"iXL.L.w pX  cXuXpXuXyXuXiXyXyXyXtXpXsX8XyXyXyXuXyXyXuXuXiXtXpXsX8XtXyXpXiXtXuXuXyXuXuXpXsX8XtXtXyXpXiXtXyXyXyXyXnXvXaXaXL.aXL.q ",
"w L.q w pX  cXuXuXyXuXtXpXuXyXyXtXpXsX8XtXyXtXuXyXuXiXuXyXyXpXsX8XyXyXiXiXyXuXyXuXuXuXpXsX8XyXyXyXiXiXyXuXyXiXaXnXvXpXw L.L.iXq ",
"iXpXw aXq   kXuXuXuXuXyXuXtXiXuXyXpXsX8XuXuXtXuXyXyXuXyXyXuXpXsX8XuXyXuXyXtXyXtXuXiXyXpXsX8XiXuXyXuXyXtXiXtXyXiXnXq L.aXaXaXaXq ",
"aXaXL.aXw   sXtXuXiXyXuXuXuXiXuXyXpXsX8XiXtXyXiXuXyXyXuXuXyXpXsX8XiXyXwXuXtXuXuXyXuXyXpXsX8XyXiXyXwXuXyXiXyXyXpXnXq aXaXaXaXaXq ",
"aXaXaXL.pX  sXuXyXuXyXuXiXuXyXiXyXpXsX8XiXyXyXpXuXiXuXtXyXyXpXsX8XuXyXtXiXtXyXuXyXiXuXpXsX8XyXuXyXtXiXtXyXyXuXuXnXq pXaXw aXw q ",
"aXaXpXpXpX  sXuXyXiXuXuXiXuXyXuXyXpXsX8XyXyXuXuXiXuXuXuXuXtXpXsX8XuXpXyXtXtXyXuXyXiXyXpXsX8XiXuXpXyXtXiXuXyXuXuXnXnXpXw L.L.aXq ",
"L.w pXpXaX  cXuXuXyXuXuXyXiXiXyXpXpXsX8XtXyXiXuXyXyXtXtXuXuXpXsX8XiXyXtXyXtXyXuXtXuXuXpXsX8XtXiXyXtXyXuXuXuXuXuXnXnXaXw q L.L.q ",
"w L.0 pXw   cXMXmXMXMXmXmXmXMXmXq MXMXmXq mXMXmXq MXMXmXq mXmXmXq MXMXmXq q q q mXMXMXmXmXMXMXq q MXMXmXMXmXMXmXnXq aXL.L.aXaXq ",
"w w w w w q nXnXq nXnXq q q vXvXvXnXnXnXbXvXq vXvXvXvXvXvXnXvXvXbXvXvXvXvXvXvXnXvXvXvXvXnXq q vXvXnXnXnXvXvXq nXnXq aXaXaXaXaXq ",
"aXaXaXaXaXw aXL.aXaXpXpXaXL.pXaXpXaXw aXw aXaXaXw w iXpXaXpXpXw q pXpXaXpXpXpXq w w aXaXaXaXaXw pXaXpXpXw L.L.w L.w aXaXL.L.aXq ",
"L.L.8 5 aXpXpXaXL.w w aXaXaXw aX8 5 w w w aXaXaXw pXiXpXpXpXL.8 5 w w aXw pXpXaXpXw iXaXaX8 5 pXw w w aXL.aXaXaXL.pXaX8 5 aXaXq ",
"aXaX0 8 aXaXpXaXL.q L.w aXaXL.L.0 8 L.w w aXaXaXw 0 L.w pXpXaX0 8 q L.L.q q pXpXaXnXL.w pX0 8 aXw q L.w L.L.aXL.aXq w 0 8 w w q ",
"w w w w w pXw L.aXL.L.aXaXaXL.aXw L.L.aXw aXL.aXw L.L.aXw aXaXaXpXL.L.aXw w w pXaXL.L.aXaXL.L.w pXL.L.aXL.aXL.aXL.L.w w aXL.aX0 ",
"e e e e e e e e e e e e e e e e e e e e e e e e e e e e e e e e e e e e e e e e e e e e e e e e e e e e e e e e e e e e e e e e "
};
