/* XPM */
static char *_6942_666776be4a19fd21be1a734089bdfd6dda9ca8ef1c64309613fffa0379b2f4c6[] = {
/* columns rows colors chars-per-pixel */
"64 64 256 2 ",
"   c black",
".  c #0000A8",
"X  c #00A800",
"o  c #00A8A8",
"O  c #A80000",
"+  c #A800A8",
"@  c #A85400",
"#  c gray66",
"$  c gray33",
"%  c #5454FC",
"&  c #54FC54",
"*  c #54FCFC",
"=  c #FC5454",
"-  c #FC54FC",
";  c #FCFC54",
":  c gray99",
">  c #ECECEC",
",  c gainsboro",
"<  c #D0D0D0",
"1  c #C0C0C0",
"2  c #B4B4B4",
"3  c gray66",
"4  c #989898",
"5  c gray55",
"6  c #7C7C7C",
"7  c gray44",
"8  c #646464",
"9  c gray33",
"0  c #484848",
"q  c gray22",
"w  c #2C2C2C",
"e  c #202020",
"r  c #FC0000",
"t  c #EC0000",
"y  c #E00000",
"u  c #D40000",
"i  c #C80000",
"p  c #BC0000",
"a  c #B00000",
"s  c #A40000",
"d  c #980000",
"f  c #880000",
"g  c #7C0000",
"h  c #700000",
"j  c #640000",
"k  c #580000",
"l  c #4C0000",
"z  c #400000",
"x  c #FCD8D8",
"c  c #FCB8B8",
"v  c #FC9C9C",
"b  c #FC7C7C",
"n  c #FC5C5C",
"m  c #FC4040",
"M  c #FC2020",
"N  c #FC0000",
"B  c #FCA85C",
"V  c #FC9840",
"C  c #FC8820",
"Z  c #FC7800",
"A  c #E46C00",
"S  c #CC6000",
"D  c #B45400",
"F  c #9C4C00",
"G  c #FCFCD8",
"H  c #FCFCB8",
"J  c #FCFC9C",
"K  c #FCFC7C",
"L  c #FCF85C",
"P  c #FCF440",
"I  c #FCF420",
"U  c #FCF400",
"Y  c #E4D800",
"T  c #CCC400",
"R  c #B4AC00",
"E  c #9C9C00",
"W  c #848400",
"Q  c #706C00",
"!  c #585400",
"~  c #404000",
"^  c #D0FC5C",
"/  c #C4FC40",
"(  c #B4FC20",
")  c #A0FC00",
"_  c #90E400",
"`  c #80CC00",
"'  c #74B400",
"]  c #609C00",
"[  c #D8FCD8",
"{  c #BCFCB8",
"}  c #9CFC9C",
"|  c #80FC7C",
" . c #60FC5C",
".. c #40FC40",
"X. c #20FC20",
"o. c #00FC00",
"O. c #00FC00",
"+. c #00EC00",
"@. c #00E000",
"#. c #00D400",
"$. c #04C800",
"%. c #04BC00",
"&. c #04B000",
"*. c #04A400",
"=. c #049800",
"-. c #048800",
";. c #047C00",
":. c #047000",
">. c #046400",
",. c #045800",
"<. c #044C00",
"1. c #044000",
"2. c #D8FCFC",
"3. c #B8FCFC",
"4. c #9CFCFC",
"5. c #7CFCF8",
"6. c #5CFCFC",
"7. c #40FCFC",
"8. c #20FCFC",
"9. c #00FCFC",
"0. c #00E4E4",
"q. c #00CCCC",
"w. c #00B4B4",
"e. c #009C9C",
"r. c #008484",
"t. c #007070",
"y. c #005858",
"u. c #004040",
"i. c #5CBCFC",
"p. c #40B0FC",
"a. c #20A8FC",
"s. c #009CFC",
"d. c #008CE4",
"f. c #007CCC",
"g. c #006CB4",
"h. c #005C9C",
"j. c #D8D8FC",
"k. c #B8BCFC",
"l. c #9C9CFC",
"z. c #7C80FC",
"x. c #5C60FC",
"c. c #4040FC",
"v. c #2024FC",
"b. c #0004FC",
"n. c #0000FC",
"m. c #0000EC",
"M. c #0000E0",
"N. c #0000D4",
"B. c #0000C8",
"V. c #0000BC",
"C. c #0000B0",
"Z. c #0000A4",
"A. c #000098",
"S. c #000088",
"D. c #00007C",
"F. c #000070",
"G. c #000064",
"H. c #000058",
"J. c #00004C",
"K. c #000040",
"L. c #282828",
"P. c #FCE034",
"I. c #FCD424",
"U. c #FCCC18",
"Y. c #FCC008",
"T. c #FCB400",
"R. c #B420FC",
"E. c #A800FC",
"W. c #9800E4",
"Q. c #8000CC",
"!. c #7400B4",
"~. c #60009C",
"^. c #500084",
"/. c #440070",
"(. c #340058",
"). c #280040",
"_. c #FCD8FC",
"`. c #FCB8FC",
"'. c #FC9CFC",
"]. c #FC7CFC",
"[. c #FC5CFC",
"{. c #FC40FC",
"}. c #FC20FC",
"|. c #FC00FC",
" X c #E000E4",
".X c #C800CC",
"XX c #B400B4",
"oX c #9C009C",
"OX c #840084",
"+X c #6C0070",
"@X c #580058",
"#X c #400040",
"$X c #FCE8DC",
"%X c #FCE0D0",
"&X c #FCD8C4",
"*X c #FCD4BC",
"=X c #FCCCB0",
"-X c #FCC4A4",
";X c #FCBC9C",
":X c #FCB890",
">X c #FCB080",
",X c #FCA470",
"<X c #FC9C60",
"1X c #F0945C",
"2X c #E88C58",
"3X c #DC8854",
"4X c #D08050",
"5X c #C87C4C",
"6X c #BC7848",
"7X c #B47044",
"8X c #A86840",
"9X c #A0643C",
"0X c #9C6038",
"qX c #905C34",
"wX c #885830",
"eX c #80502C",
"rX c #744C28",
"tX c #6C4824",
"yX c #5C4020",
"uX c #543C1C",
"iX c #483818",
"pX c #403018",
"aX c #382C14",
"sX c #28200C",
"dX c #600064",
"fX c #006464",
"gX c #006060",
"hX c #00001C",
"jX c #00002C",
"kX c #302410",
"lX c #480048",
"zX c #500050",
"xX c #000034",
"cX c gray11",
"vX c #4C4C4C",
"bX c gray36",
"nX c gray25",
"mX c gray19",
"MX c #343434",
"NX c #D8F4F4",
"BX c #B8E8E8",
"VX c #9CDCDC",
"CX c #74C8C8",
"ZX c #48C0C0",
"AX c #20B4B4",
"SX c #20B0B0",
"DX c #00A4A4",
"FX c #009898",
"GX c #008C8C",
"HX c #008484",
"JX c #007C7C",
"KX c #007878",
"LX c #007474",
"PX c #007070",
"IX c #006C6C",
"UX c #980088",
/* pixels */
"                                                                                                                                ",
"0 0 0 $ 0 0 0 0 0 0 0 0 $ 0 $ 0 0 0 0 0 0 0 0 0 0 0 0 0 0 $ 0 0 0 0 0 0 0 0 0 0 $ 0 0 0 0 0 0 0 0 $ 0 $ 0 0 0 0 0 0 0 0 0 0 0 0 ",
"0 0 $ 0 0 0 0 0 0 0 0 $ 0 $ 0 0 0 0 0 0 0 0 $ 0 0 0 0 0 $ 0 0 0 0 0 0 0 0 0 0 $ 0 0 0 0 0 0 0 0 $ 0 $ 0 0 0 0 0 0 0 0 $ 0 0 0 0 ",
"0 $ 0 0 0 0 $ 0 0 0 0 0 $ 0 0 $ 0 0 0 $ 0 $ 0 $ 0 0 0 $ 0 0 0 0 $ 0 0 0 0 0 $ 0 0 0 0 $ 0 0 0 0 0 $ 0 0 $ 0 0 0 $ 0 $ 0 $ 0 0 0 ",
"w w bX0 0 w w w w w w q w q w w w w w w w w q w w w w w q w w w w w w w w w w q w w w w w w w w q w q w w w w w w w w 0 0 w w w ",
"    bX0 $ w j j h g g j k k k k k j j k j j j j j j j k k z z k k j j h g h j j j k z z z z z z z k j j h j k j k z bX$ 0 w     ",
"cXcX7 0 0 q j d d d d f g h g g g f d d f f g g g g f g g h h h g g f d s s f f f g j k j j j j j h g f f f f f f f 7 0 0 w   cX",
"cXcX7 0 $ w g s d f f f f g g g f d d d f g g g g g g g g g h h g h g f s d f f g g j k j h h g h h g g f f d d s s 7 0 0 w   cX",
"cXcXbX$ 0 w g s d g g g f f f g f f f f f g g g g g g g f f h h h h h g d d d f f g h h h h g g g g g g g f d s O O bX0 $ w   cX",
"cXcXbX0 $ w g s d g k k k k k k k k k k k k k k k k k k k k k k k k k k k k k k k k k k k k k k k k k k k k O O O s bX0 0 q   cX",
"cXcX7 $ 0 w h s d f h                                                                                     m O O O s 7 0 $ w   cX",
"cXcXbX0 0 w h f f g h                                                                                     m d s s d bX$ 0 w   cX",
"cXcXbX$ 0 w h f g g h                                     sX~ ! ! ~                                       m s s s s bX0 $ w   cX",
"cXcXbX0 $ w j g h g h                                   sXE T sXT T ~                                     m s O O s bX$ 0 w   cX",
"cXcXbX0 0 w k h h g h               E T T T T R         ~ R T T T T.!           R T T T T R               m O O O s bX0 0 w   cX",
"cXcXbX0 0 q k g g f h             W T.T.T.T.T.T.!       !   R T T T !         W T.T.T.T.T.T.!             m s O s s bX$ 0 w   cX",
"cXcXbX0 $ w k f f d h           W T.T.E ~ ~ sXT.T.!         sXT T.T.~       W T.T.sX~ sXE T.T.!           m d s s O bX0 $ q   cX",
"cXcXbX0 0 q j f d s h         W T.T.E ~ Q T T.sXT.T.!       sXT T.T.      W T.T.sXT.T Q sXE T.T.!         m f d s s bX0 0 w   cX",
"cXcX7 0 0 w j f d s h       ~ T.T.sX~ Q ~ T.~ T.sXT.T.!   sX~ T.T T.sX  W T.T.sXT.sXT.sXQ ~ sXT.T.~       m g g f f 7 0 0 w   cX",
"bXbXbX0 0 w h d s O h         sXsXW sXT T.~ T ~ T.sXT.T.~ W T sXW sXT.~ T.T.sXT.sXT sXT E sXW sXsX        m h j h g bX0 $ w bXbX",
"0 0 0 0 0 w g s s O h         sXT.R sXT.~ T ~ T ~ T.sX~ sXT sXT sXT T sX~ sXT.sXT sXT ~ W sXT T.sX        m h j h g 7 0 0 0 0 $ ",
"0 $ 0 0 0 w g O O O h         R T.R sX~ sXE ~ T ~ T T.sXT.sXT.sXT ~ sXT.sXT.T ~ T ~ E sX~ sXT T.R         m f h h g bX0 0 $ 0 0 ",
"w w w q w w g O O p h         T T.R sXT W sXW ~ T ~ sXT.sXT.T sXT.E T.sXT.sX~ T sXW sXW R sXT T.R         m d g h h 7 w w w w w ",
"h h g g g f f p i i h         T T.R sXT R sXsXW ~ R E sXT.~ sXT.T W sXT.sXW W sXW sXsXT R sXT T.R         m d f h h l l k j j h ",
"O O O O p p i i i i h         T T.R sXT R sXQ sXsX~ sXT.~ T T.~ T.sXT ~ T.sX~ sX~ Q sXT R sXT T.R         m f f g g f f f d s O ",
"O O O O O O i i i i h         T T.R sXT R sXT W sXQ ~ sX~ W T T.sXT W ~ sXsXQ sXW R sXT R sXT T.R         m f f f f f f d d s O ",
"O O s s s O O p p p h         T T.R sXT R sXT R sXR     sX~ Y sXQ sXsX~     T sXT R sXT R sXT T.R         m f f d d d d s s s O ",
"O O s d d d s s O O h         T T.R sXT R sXT R sXR sX~ T T ~ T.E sXT Q ~ sXT sXT R sXT R sXT T.R         m d d s O s s s s s s ",
"s s s f f f d d d s h         T T.R sXT R sXT R sXR sX~ T T ~ Y E sXT E ~ sXT sXT R sXT R sXT T.R         m s s O p O s s O s d ",
"d d s d f f f f g f h         T T.R sXT R sXT R sXR sX~ T T ~ T E sXT E ~ sXT sXT R sXT R sXT T.R         m p p p i i O s s s s ",
"d d d d f f f g g g h         T T.sXQ T R sXT R sXR sX~ Q sXR ~ E W sXE ~ sXT sXT R sXT R Q sXT.R         m p p p p i p s s s s ",
"d f g g f g h g g f h         sXsXR sXT R sXT R sXR sX~ sXT T ~ E sXT sX~ sXT sXT R sXT R sXT sXsX        m p i p p O O O s s s ",
"d g j j g g h g f f h         T T.R sXT R sXT R sXR   ~ Y T E sX~ T T Q ~   T sXT R sXT R sXT T.R         m p p p p O O O s d d ",
"f f h k j g g f f f h         T T.R sXT R sXT R sXR   sXsXT ~ T E sXT E ~   T sXT R sXT R sXT T.R         m O s O O s d s d f g ",
"g g g h j h f f f f h         T T.R sXT R sXT R sXR     sX~ T T E Q sXE ~   T sXT R sXT R sXT T.R         m s f d d f f f f g h ",
"h h g g h h g f f f h         T T.R sXT R sXT R sXR     ~ T Y T E T T sX~   T sXT R sXT R sXT T.R         m d f f f f f f g f g ",
"g g g f g j h f f f h         T T.R sXT R sXT R sXR     ~ T sXT E sXT E ~   T sXT R sXT R sXT T.R         m f f g g g g g h g g ",
"f f f g g j k j g f h         T T.R sXT R sXT R sXR     ~ T ~ T E sXT sXsX  T sXT R sXT R sXT T.R         m f f g g h h j h h g ",
"f f g g h h k k h f h         T T.R sXT R sXT R sXR     ~ ~ Y ~ sXsXT sX    T sXT R sXT R sXT T.R         m f f f g g h h g g f ",
"f f f h h h j k j g h         T T.R sXT R sXT R sXR     ~ Y R ~ sXsXR ~     T sXT R sXT R sXT T.R         m f f f f d f g f f g ",
"f f g h h h h j k h h         T T.R sXT R sXT R sXW   ~ Y R ~ d g ~ Y R ~   W sXT R sXT R sXT T.R         m f f d d d d f f g h ",
"7 bXbX0 0 w j h j j h         T T.R sXT R sXT R sX    ~ R ~ d g z   ~ Y R ~   sXT R sXT R sXT T.R         m f d s s bXbX7 bXbXbX",
"0 0 0 0 $ w k g j k h         T T.R sXT R sXT W       ~ ~ d g z   z g ~ ~ z     W R sXT R sXT T.R         m f d s O bX0 $ 0 0 0 ",
"0 $ 0 0 0 q k g h j h         T T.R sXT R sXW       z   z O d g z O d g d g z     W sXT R sXT T.R         m f s O p 7 0 0 0 $ 0 ",
"w w 7 0 $ w z h h h h         T T.R sXT W         z g z   z O d O d g z O d g z       W R sXT T.R         m s O O p 7 0 $ w w w ",
"    bX$ 0 w z j h h h         T T.R sXW         z O d g z   z O d g z   z O d g z       W sXT T.R         m p O O p bX$ 0 w     ",
"cXcXbX0 $ w z h h g h         T T.W               z O d g z O d O d g z   z O z             W T.R         m i p O O bX0 $ w   cX",
"cXcX7 $ 0 w k g g f h         T W                   z O d O d g z O d g z   z                 W R         m i i p O 7 $ 0 w   cX",
"cXcXbX0 0 w j g g f h         W                       z O d g z   z O d g z                     W         m i i i O bX0 0 w   cX",
"cXcXbX$ 0 w k f f f h                                   z O z   z O d g z                                 m i i i p bX$ 0 w   cX",
"cXcXbX0 $ w k f d d h                                     z   z O d g z                                   m O i i i bX0 $ w   cX",
"cXcXbX0 0 w h d O O h                                       z O d g z                                     m s O p i bX0 0 w   cX",
"cXcXbX0 0 q g s O O h                                         z d z                                       m d d s O bX0 0 q   cX",
"cXcXbX0 $ w g O s O h                                           z                                         m f d d s bX0 $ w   cX",
"cXcXbX0 0 q g p O O h n n n n n n n n n n n n n n n n n n n n n n n n n n n n n n n n n n n n n n n n n n n f f d s bX0 0 q   cX",
"cXcX7 0 0 w g p O O O p O O s s s d f g h j h h h g f d s O O O O O O O d d d d s O p O O O O s d d d d f f g f f d 7 0 0 w   cX",
"cXcXbX0 0 w g O p O O O O s d d s s d f h j h g g f f s O p p p O O s d f f f f d O p p O s s d f d d f f f g g f f bX0 0 w   cX",
"cXcX7 0 0 w j O p p i p s f f f f d f f g h g g f d d s O p p O d d f f f g f f f d O O s s d d f f f f f f g g f f 7 0 0 w   cX",
"cXcXbX0 0 w h O p i i O d f g g g f f f f g g f d s s O O O O d f g g f f g g g g f f d s s d f f g h g f f f f f f bX0 0 w   cX",
"bXbX7 0 0 w bX7 bXbXbX7 bXbX7 7 bXbXbXbXbXbXbXbXbX7 bX7 bX7 bXbXbXbXbXbXbX7 bXbX7 7 bXbXbXbXbXbX7 bXbX7 7 bXbXbXbXbX7 $ $ w 7 bX",
"0 $ 0 0 0 0 $ 0 0 0 0 0 $ 0 0 $ 0 0 0 $ 0 $ 0 $ 0 0 0 $ 0 0 0 0 $ 0 0 0 0 0 $ 0 0 0 0 $ 0 0 0 0 0 $ 0 0 $ 0 0 0 $ 0 $ 0 $ 0 0 0 ",
"0 0 $ 0 0 0 0 0 0 0 0 $ 0 $ 0 0 0 0 0 0 0 0 $ 0 0 0 0 0 $ 0 0 0 0 0 0 0 0 0 0 $ 0 0 0 0 0 0 0 0 $ 0 $ 0 0 0 0 0 0 0 0 $ 0 0 0 0 ",
"0 0 0 $ 0 0 0 0 0 0 0 0 $ 0 $ 0 0 0 0 0 0 0 0 0 0 0 0 0 0 $ 0 0 0 0 0 0 0 0 0 0 $ 0 0 0 0 0 0 0 0 $ 0 $ 0 0 0 0 0 0 0 0 0 0 0 0 ",
"                                                                                                                                "
};
