/* XPM */
static char *_6028_274478a8c5b7a5e0be4c11b93272acb45097f9d93d70c1d923fe7e9c4c8fbd2f[] = {
/* columns rows colors chars-per-pixel */
"64 64 256 2 ",
"   c black",
".  c #0000A8",
"X  c #00A800",
"o  c #00A8A8",
"O  c #A80000",
"+  c #A800A8",
"@  c #A85400",
"#  c gray66",
"$  c gray33",
"%  c #5454FC",
"&  c #54FC54",
"*  c #54FCFC",
"=  c #FC5454",
"-  c #FC54FC",
";  c #FCFC54",
":  c gray99",
">  c #ECECEC",
",  c gainsboro",
"<  c #D0D0D0",
"1  c #C0C0C0",
"2  c #B4B4B4",
"3  c gray66",
"4  c #989898",
"5  c gray55",
"6  c #7C7C7C",
"7  c gray44",
"8  c #646464",
"9  c gray33",
"0  c #484848",
"q  c gray22",
"w  c #2C2C2C",
"e  c #202020",
"r  c #FC0000",
"t  c #EC0000",
"y  c #E00000",
"u  c #D40000",
"i  c #C80000",
"p  c #BC0000",
"a  c #B00000",
"s  c #A40000",
"d  c #980000",
"f  c #880000",
"g  c #7C0000",
"h  c #700000",
"j  c #640000",
"k  c #580000",
"l  c #4C0000",
"z  c #400000",
"x  c #FCD8D8",
"c  c #FCB8B8",
"v  c #FC9C9C",
"b  c #FC7C7C",
"n  c #FC5C5C",
"m  c #FC4040",
"M  c #FC2020",
"N  c #FC0000",
"B  c #FCA85C",
"V  c #FC9840",
"C  c #FC8820",
"Z  c #FC7800",
"A  c #E46C00",
"S  c #CC6000",
"D  c #B45400",
"F  c #9C4C00",
"G  c #FCFCD8",
"H  c #FCFCB8",
"J  c #FCFC9C",
"K  c #FCFC7C",
"L  c #FCF85C",
"P  c #FCF440",
"I  c #FCF420",
"U  c #FCF400",
"Y  c #E4D800",
"T  c #CCC400",
"R  c #B4AC00",
"E  c #9C9C00",
"W  c #848400",
"Q  c #706C00",
"!  c #585400",
"~  c #404000",
"^  c #D0FC5C",
"/  c #C4FC40",
"(  c #B4FC20",
")  c #A0FC00",
"_  c #90E400",
"`  c #80CC00",
"'  c #74B400",
"]  c #609C00",
"[  c #D8FCD8",
"{  c #BCFCB8",
"}  c #9CFC9C",
"|  c #80FC7C",
" . c #60FC5C",
".. c #40FC40",
"X. c #20FC20",
"o. c #00FC00",
"O. c #00FC00",
"+. c #00EC00",
"@. c #00E000",
"#. c #00D400",
"$. c #04C800",
"%. c #04BC00",
"&. c #04B000",
"*. c #04A400",
"=. c #049800",
"-. c #048800",
";. c #047C00",
":. c #047000",
">. c #046400",
",. c #045800",
"<. c #044C00",
"1. c #044000",
"2. c #D8FCFC",
"3. c #B8FCFC",
"4. c #9CFCFC",
"5. c #7CFCF8",
"6. c #5CFCFC",
"7. c #40FCFC",
"8. c #20FCFC",
"9. c #00FCFC",
"0. c #00E4E4",
"q. c #00CCCC",
"w. c #00B4B4",
"e. c #009C9C",
"r. c #008484",
"t. c #007070",
"y. c #005858",
"u. c #004040",
"i. c #5CBCFC",
"p. c #40B0FC",
"a. c #20A8FC",
"s. c #009CFC",
"d. c #008CE4",
"f. c #007CCC",
"g. c #006CB4",
"h. c #005C9C",
"j. c #D8D8FC",
"k. c #B8BCFC",
"l. c #9C9CFC",
"z. c #7C80FC",
"x. c #5C60FC",
"c. c #4040FC",
"v. c #2024FC",
"b. c #0004FC",
"n. c #0000FC",
"m. c #0000EC",
"M. c #0000E0",
"N. c #0000D4",
"B. c #0000C8",
"V. c #0000BC",
"C. c #0000B0",
"Z. c #0000A4",
"A. c #000098",
"S. c #000088",
"D. c #00007C",
"F. c #000070",
"G. c #000064",
"H. c #000058",
"J. c #00004C",
"K. c #000040",
"L. c #282828",
"P. c #FCE034",
"I. c #FCD424",
"U. c #FCCC18",
"Y. c #FCC008",
"T. c #FCB400",
"R. c #B420FC",
"E. c #A800FC",
"W. c #9800E4",
"Q. c #8000CC",
"!. c #7400B4",
"~. c #60009C",
"^. c #500084",
"/. c #440070",
"(. c #340058",
"). c #280040",
"_. c #FCD8FC",
"`. c #FCB8FC",
"'. c #FC9CFC",
"]. c #FC7CFC",
"[. c #FC5CFC",
"{. c #FC40FC",
"}. c #FC20FC",
"|. c #FC00FC",
" X c #E000E4",
".X c #C800CC",
"XX c #B400B4",
"oX c #9C009C",
"OX c #840084",
"+X c #6C0070",
"@X c #580058",
"#X c #400040",
"$X c #FCE8DC",
"%X c #FCE0D0",
"&X c #FCD8C4",
"*X c #FCD4BC",
"=X c #FCCCB0",
"-X c #FCC4A4",
";X c #FCBC9C",
":X c #FCB890",
">X c #FCB080",
",X c #FCA470",
"<X c #FC9C60",
"1X c #F0945C",
"2X c #E88C58",
"3X c #DC8854",
"4X c #D08050",
"5X c #C87C4C",
"6X c #BC7848",
"7X c #B47044",
"8X c #A86840",
"9X c #A0643C",
"0X c #9C6038",
"qX c #905C34",
"wX c #885830",
"eX c #80502C",
"rX c #744C28",
"tX c #6C4824",
"yX c #5C4020",
"uX c #543C1C",
"iX c #483818",
"pX c #403018",
"aX c #382C14",
"sX c #28200C",
"dX c #600064",
"fX c #006464",
"gX c #006060",
"hX c #00001C",
"jX c #00002C",
"kX c #302410",
"lX c #480048",
"zX c #500050",
"xX c #000034",
"cX c gray11",
"vX c #4C4C4C",
"bX c gray36",
"nX c gray25",
"mX c gray19",
"MX c #343434",
"NX c #D8F4F4",
"BX c #B8E8E8",
"VX c #9CDCDC",
"CX c #74C8C8",
"ZX c #48C0C0",
"AX c #20B4B4",
"SX c #20B0B0",
"DX c #00A4A4",
"FX c #009898",
"GX c #008C8C",
"HX c #008484",
"JX c #007C7C",
"KX c #007878",
"LX c #007474",
"PX c #007070",
"IX c #006C6C",
"UX c #980088",
/* pixels */
"cXcXcX  cXcXcXcXcX  cXcXcXcX  cXcXcXcXcXcXcXcXcXcXcXcXcXcXcXcXcXcXcXcXcXcXcXcXcXcXcXcXcXcXcXcXcXcXcXcXcXcXcXcXcXcX  cXcXcXcXcX  ",
"q q q w w e q q q q q q w w e e w e w w w cX6 2 2 2 2 2 2 2 2 2 2 2 2 2 2 2 2 2 5 7 cXcXcXcXcXcXw q q q q q e q q w w cXw w w cX",
"# # # 4 4 4 4 4 5 7 q cXq q w w $ # 1 1 # q 6 # 1 1 1 1 1 1 1 1 1 1 1 1 1 1 1 2 7 0 cX1 1 1 2 $ w cXq q q q 6 2 2 # 2 # # 5 2 # ",
"5 5 5 5 5 5 7 $ q cXcXq w w   7 1 1 # # 5 7 q 5 2 1 # # 5 5 5 5 5 5 5 5 5 5 5 6 0 cX2 1 1 1 1 2 $ w cXcXq q q $ 5 4 4 # 5 6 5 5 ",
"5 6 5 6 6 7 q cXcXq w 7 7 6 cX6 2 # # # # 7 q 7 2 1 # 5 5 5 6 6 5 6 6 6 6 6 6 7 0 bX1 # # # 2 4 7 cX6 6 cXcXq 0 $ 5 6 5 5 6 6 6 ",
"6 6 6 6 bXq cXcXq w 5 2 1 1 # cXq 7 # 5 5 7 $ q 7 2 4 5 5 6 6 6 5 6 6 6 6 6 6 0 cX2 # 5 5 5 # q cX6 1 2 bXq cXcXq $ 6 7 6 7 6 6 ",
"6 6 6 6 w cXcXq w 2 1 1 2 2 1 7 cXq 7 5 5 5 7 q 7 # # 5 6 6 6 6 6 6 6 6 6 6 7 0 bX1 5 5 5 5 q cX6 1 2 5 6 bXq cXcXq $ 5 6 6 6 6 ",
"6 6 6 $ cXcXq w 2 1 2 2 5 5 5 1 7 cXq 7 5 5 7 $ q 7 # 7 7 7 7 7 7 7 7 7 7 7 0 cX2 # 5 5 5 q cX6 1 2 5 5 5 6 bXq cXcXq $ 5 7 6 6 ",
"7 7 7 w cXq w 5 1 2 # 5 5 5 5 6 2 7 cXq 7 7 7 $ q q q q q q q q q q q q q q q cX4 4 5 5 q cX6 1 2 5 5 5 6 6 6 0 q cXcXq $ 6 7 6 ",
"bXbXw cXw w q q bX1 5 6 5 6 6 6 5 2 7 cXq q q q q   cXcXcXcXcXcXcXcXcXcX  cX  q q 7 4 $ cX6 1 2 5 5 6 6 6 6 7 bXq q cXcXq cX7 bX",
"      w w 4 1 6 q bX5 5 5 6 6 6 5 7 # 7 cXq cXcX                                cXcXq cX6 1 2 5 5 5 6 6 6 7 bXq cXcXcXcXw w cX  ",
"cXcXcXw 4 1 2 1 6 cXq bX6 6 6 6 7 bX0 q q                                             q q $ 2 5 6 6 6 6 bXq cXcX6 6 $ cXcXcXw cX",
"5 w w 7 1 2 2 2 1 # cXq 0 bX7 7 bXcXcXcX                                              cXcXcX7 2 6 7 bX0 cXcX5 1 2 2 4 $ cXcXcX< ",
"7   w 4 2 # 5 5 2 1 # $ cXq 0 0 q cX                                                      cXcX7 2 0 q cX$ 5 1 2 5 5 5 bXcXcXcX< ",
"0   $ 1 2 # # # 4 4 1 1 bXcXcXq cX                                                            cXq cXcX5 1 1 # 5 5 5 5 6 $ cXcX2 ",
"0   7 1 2 4 5 5 5 5 5 2 1 bXcX                                                                    cX5 1 1 # 5 5 5 6 6 6 $ cXcX2 ",
"0   4 1 2 5 5 5 6 6 5 7 bXq cX                                                                    q 7 1 1 # 5 6 6 6 7 7 $ cXcX# ",
"0   4 2 2 5 6 6 6 7 5 7 q cX                                                                      cXq 5 1 1 # 6 6 7 7 7 bXcX  # ",
"0   4 7 7 bX7 7 7 7 7 bXq                               sX~ ! ! ~                                   q $ 1 2 # bXbXq q q q q   4 ",
"0   cXcXcXcXq q q q $ q cX                            sXE T sXT T ~                                 cX$ q $ q q q cXcXcXcXcXcX5 ",
"  cX1 1 4 7 bXcXcXcX              E T T T T R         ~ R T T T T.!           R T T T T R           cX  cXcXcXcX$ # 1 1 2 7 cX  ",
"w q 1 2 2 2 1 1 1 6 cX          W T.T.T.T.T.T.!       !   R T T T !         W T.T.T.T.T.T.!             cX$ 2 1 1 2 # 4 4 $ cXw ",
"q cX1 # 5 5 5 5 6 # cXcX      W T.T.E ~ ~ sXT.T.!         sXT T.T.~       W T.T.sX~ sXE T.T.!       cXcXq $ 1 # # 5 5 6 5 q cXq ",
"e q 1 # 6 5 6 6 6 5 cXcX    W T.T.E ~ Q T T.sXT.T.!       sXT T.T.      W T.T.sXT.T Q sXE T.T.!     cXcXq $ 1 # 5 6 5 6 7 q cXe ",
"w e 1 # 5 5 6 6 6 7 cXcX  ~ T.T.sX~ Q ~ T.~ T.sXT.T.!   sX~ T.T T.sX  W T.T.sXT.sXT.sXQ ~ sXT.T.~   cXcXq $ 1 # 5 5 6 7 7 q cXw ",
"cXe 1 # 6 6 6 6 6 7 cXcX    sXsXW sXT T.~ T ~ T.sXT.T.~ W T sXW sXT.~ T.T.sXT.sXT sXT E sXW sXsX    cXcXq $ 1 # 7 7 7 7 7 q cXcX",
"cXe 2 5 7 7 7 7 7 7 cXcX    sXT.R sXT.~ T ~ T ~ T.sX~ sXT sXT sXT T sX~ sXT.sXT sXT ~ W sXT T.sX    cXcXq $ $ q q q q q q q cXcX",
"cXq w                       R T.R sX~ sXE ~ T ~ T T.sXT.sXT.sXT ~ sXT.sXT.T ~ T ~ E sX~ sXT T.R           cXw cX              cX",
"cXq w q e w e q q q         T T.R sXT W sXW ~ T ~ sXT.sXT.T sXT.E T.sXT.sX~ T sXW sXW R sXT T.R           cXq cXq cXq e e e q cX",
"w q 1 1 2 2 2 2 # 5 cXcX    T T.R sXT R sXsXW ~ R E sXT.~ sXT.T W sXT.sXW W sXW sXsXT R sXT T.R     cXcXq $ 1 2 2 2 2 # 5 5 e w ",
"w cX1 # 4 5 5 5 5 6 cXcX    T T.R sXT R sXQ sXsX~ sXT.~ T T.~ T.sXT ~ T.sX~ sX~ Q sXT R sXT T.R     cXcXq $ 2 4 5 5 5 6 6 6   w ",
"cXq 1 # 5 6 5 6 6 7 cXcX    T T.R sXT R sXT W sXQ ~ sX~ W T T.sXT W ~ sXsXQ sXW R sXT R sXT T.R     cXcXq $ 2 5 6 6 6 6 6 7   cX",
"5 cX2 # 5 5 5 6 7 7 cXcX    T T.R sXT R sXT R sXR     sX~ Y sXQ sXsX~     T sXT R sXT R sXT T.R     cXcXq $ 2 5 6 5 6 6 6 7 cX< ",
"7 cX2 4 5 6 6 6 7 7 cXcX    T T.R sXT R sXT R sXR sX~ T T ~ T.E sXT Q ~ sXT sXT R sXT R sXT T.R     cXcXq $ 2 5 6 6 6 6 7 7 cX< ",
"bX  2 4 5 6 6 6 7 7 cXcX    T T.R sXT R sXT R sXR sX~ T T ~ Y E sXT E ~ sXT sXT R sXT R sXT T.R     cXcXq $ # 5 6 6 6 7 7 bXcX2 ",
"0   # 5 6 5 6 6 6 7 cXcX    T T.R sXT R sXT R sXR sX~ T T ~ T E sXT E ~ sXT sXT R sXT R sXT T.R     cXcXq $ # 5 6 6 6 6 7 bXcX2 ",
"bX  # 5 6 6 5 6 7 bXcXcX    T T.sXQ T R sXT R sXR sX~ Q sXR ~ E W sXE ~ sXT sXT R sXT R Q sXT.R     cXcXq $ # 6 6 6 6 6 6 7 cX# ",
"bX  4 6 6 6 6 6 7 0 cXcX    sXsXR sXT R sXT R sXR sX~ sXT T ~ E sXT sX~ sXT sXT R sXT R sXT sXsX    cXcXq $ 4 6 7 7 7 7 7 bX  # ",
"bX  5 7 bXbXbXbX0 0 cXcX    T T.R sXT R sXT R sXR   ~ Y T E sX~ T T Q ~   T sXT R sXT R sXT T.R     cXcXq $ 5 7 0 0 0 0 0 0   4 ",
"0   w cXcXcXcXcX            T T.R sXT R sXT R sXR   sXsXT ~ T E sXT E ~   T sXT R sXT R sXT T.R           cXw                 5 ",
"    q e q q q w w w         T T.R sXT R sXT R sXR     sX~ T T E Q sXE ~   T sXT R sXT R sXT T.R           cXcXq e e e q q q cXq ",
"w q < 1 2 2 2 2 # 5 cXcX    T T.R sXT R sXT R sXR     ~ T Y T E T T sX~   T sXT R sXT R sXT T.R     cXcXq $ < 1 2 2 2 2 # 5 cXw ",
"q cX1 2 4 4 4 5 6 6 cXcX    T T.R sXT R sXT R sXR     ~ T sXT E sXT E ~   T sXT R sXT R sXT T.R     cXcXq $ 1 2 4 4 4 5 6 6   q ",
"e q 2 4 6 6 6 6 6 7 cXcX    T T.R sXT R sXT R sXR     ~ T ~ T E sXT sXsX  T sXT R sXT R sXT T.R     cXcXq $ 2 4 6 6 6 6 6 7   e ",
"w e 2 5 6 6 6 6 7 7 cXcX    T T.R sXT R sXT R sXR     ~ ~ Y ~ sXsXT sX    T sXT R sXT R sXT T.R     cXcXq $ 2 5 6 6 6 6 7 7   w ",
"cXe 2 5 6 7 6 6 7 bXcXcX    T T.R sXT R sXT R sXR     ~ Y R ~ sXsXR ~     T sXT R sXT R sXT T.R     cXcXq $ 2 5 6 7 6 6 7 bX  cX",
"cXe # 5 6 6 6 6 7 7 cXcX    T T.R sXT R sXT R sXW   ~ Y R ~ d g ~ Y R ~   W sXT R sXT R sXT T.R     cXcXq $ # 5 6 6 6 6 7 7   cX",
"cXq # 5 6 5 6 6 6 7 cXcX    T T.R sXT R sXT R sX    ~ R ~ d g z   ~ Y R ~   sXT R sXT R sXT T.R     cXcXq $ # 5 5 6 6 5 6 bX  cX",
"cXq # 5 6 6 5 6 7 bXcXcX    T T.R sXT R sXT W       ~ ~ d g z   z g ~ ~ z     W R sXT R sXT T.R     cXcXq $ # 4 5 6 6 6 7 bX  cX",
"w q 4 6 6 6 6 6 7 0 cXcX    T T.R sXT R sXW       z   z O d g z O d g d g z     W sXT R sXT T.R     cXcXq $ 4 6 7 7 7 7 bX0   w ",
"w cX5 7 bXbXbXbX0 0 cXcX    T T.R sXT W         z g z   z O d O d g z O d g z       W R sXT T.R     cXcXq $ 5 7 bX0 0 0 0 0   w ",
"cXq w cXcXcXcXcX            T T.R sXW         z O d g z   z O d g z   z O d g z       W sXT T.R           cXw cX          cXcXe ",
"5 w w q e w e q q q         T T.W               z O d g z O d O d g z   z O z             W T.R           cXq cXq cXq e e e q < ",
"7   < 1 2 2 2 2 # 5 cXcX    T W                   z O d O d g z O d g z   z                 W R     cXcXq $ 1 2 2 2 2 # 5 5 e 2 ",
"bX  1 # 4 5 5 5 5 6 cXcX    W                       z O d g z   z O d g z                     W     cXcXq $ 2 4 5 5 5 6 6 6   2 ",
"0   1 # 5 6 5 6 6 7 cXcX                              z O z   z O d g z                             cXcXq $ 2 5 6 6 6 6 6 7   2 ",
"0   2 # 5 5 5 6 7 7 cXcX                                z   z O d g z                               cXcXq $ 2 5 6 5 6 6 6 7   2 ",
"0   2 4 5 6 6 6 7 7 cXcX                                  z O d g z                                 cXcXq $ 2 5 6 6 6 6 7 7   2 ",
"bX  # 4 5 6 6 6 7 bXcXcX                                    z d z                                   cXcXq $ 2 4 5 5 6 6 6 7   # ",
"0   # 5 6 7 6 7 7 0 cXcX                        cXcXcXcXcXcXcXcXcXcXcXcXcXcXcX                      cXcXq $ 4 6 6 6 6 6 7 0   # ",
"0   5 6 7 bXbXbX0 0 cXcX      sXsXsXsXsXsXsXsXsXsXsXsXsXsXsXsXsXsXsXsXsXsXsXsXsXsXsXsXsXsXsX        cXcXq $ 5 7 bXbXbXbX0 0   5 ",
"  cXe               cXcX      sX                                                                    cXcXq $ w cXcXcXcXcX      e ",
"cXw w e q w w w q w cXcX    cXq q q q q q q q q q q q q q q q q q q q q q q q q q q q q q q q cX    cXcXq $ w w e q w w w q w w ",
"q q q q q q q q q q cXcX    q 0 $ $ $ $ $ $ $ $ $ $ $ $ $ $ $ $ $ $ $ $ $ $ $ $ $ $ $ $ $ $ 0 cX    cXcXq $ q q q q q q q q q q "
};
