/* XPM */
static char *_65b2029bd344ca7e25c89a41f7a8b8c[] = {
/* columns rows colors chars-per-pixel */
"64 64 256 2 ",
"   c black",
".  c #0000A8",
"X  c #00A800",
"o  c #00A8A8",
"O  c #A80000",
"+  c #A800A8",
"@  c #A85400",
"#  c gray66",
"$  c gray33",
"%  c #5454FC",
"&  c #54FC54",
"*  c #54FCFC",
"=  c #FC5454",
"-  c #FC54FC",
";  c #FCFC54",
":  c gray99",
">  c #ECECEC",
",  c gainsboro",
"<  c #D0D0D0",
"1  c #C0C0C0",
"2  c #B4B4B4",
"3  c gray66",
"4  c #989898",
"5  c gray55",
"6  c #7C7C7C",
"7  c gray44",
"8  c #646464",
"9  c gray33",
"0  c #484848",
"q  c gray22",
"w  c #2C2C2C",
"e  c #202020",
"r  c #FC0000",
"t  c #EC0000",
"y  c #E00000",
"u  c #D40000",
"i  c #C80000",
"p  c #BC0000",
"a  c #B00000",
"s  c #A40000",
"d  c #980000",
"f  c #880000",
"g  c #7C0000",
"h  c #700000",
"j  c #640000",
"k  c #580000",
"l  c #4C0000",
"z  c #400000",
"x  c #FCD8D8",
"c  c #FCB8B8",
"v  c #FC9C9C",
"b  c #FC7C7C",
"n  c #FC5C5C",
"m  c #FC4040",
"M  c #FC2020",
"N  c #FC0000",
"B  c #FCA85C",
"V  c #FC9840",
"C  c #FC8820",
"Z  c #FC7800",
"A  c #E46C00",
"S  c #CC6000",
"D  c #B45400",
"F  c #9C4C00",
"G  c #FCFCD8",
"H  c #FCFCB8",
"J  c #FCFC9C",
"K  c #FCFC7C",
"L  c #FCF85C",
"P  c #FCF440",
"I  c #FCF420",
"U  c #FCF400",
"Y  c #E4D800",
"T  c #CCC400",
"R  c #B4AC00",
"E  c #9C9C00",
"W  c #848400",
"Q  c #706C00",
"!  c #585400",
"~  c #404000",
"^  c #D0FC5C",
"/  c #C4FC40",
"(  c #B4FC20",
")  c #A0FC00",
"_  c #90E400",
"`  c #80CC00",
"'  c #74B400",
"]  c #609C00",
"[  c #D8FCD8",
"{  c #BCFCB8",
"}  c #9CFC9C",
"|  c #80FC7C",
" . c #60FC5C",
".. c #40FC40",
"X. c #20FC20",
"o. c #00FC00",
"O. c #00FC00",
"+. c #00EC00",
"@. c #00E000",
"#. c #00D400",
"$. c #04C800",
"%. c #04BC00",
"&. c #04B000",
"*. c #04A400",
"=. c #049800",
"-. c #048800",
";. c #047C00",
":. c #047000",
">. c #046400",
",. c #045800",
"<. c #044C00",
"1. c #044000",
"2. c #D8FCFC",
"3. c #B8FCFC",
"4. c #9CFCFC",
"5. c #7CFCF8",
"6. c #5CFCFC",
"7. c #40FCFC",
"8. c #20FCFC",
"9. c #00FCFC",
"0. c #00E4E4",
"q. c #00CCCC",
"w. c #00B4B4",
"e. c #009C9C",
"r. c #008484",
"t. c #007070",
"y. c #005858",
"u. c #004040",
"i. c #5CBCFC",
"p. c #40B0FC",
"a. c #20A8FC",
"s. c #009CFC",
"d. c #008CE4",
"f. c #007CCC",
"g. c #006CB4",
"h. c #005C9C",
"j. c #D8D8FC",
"k. c #B8BCFC",
"l. c #9C9CFC",
"z. c #7C80FC",
"x. c #5C60FC",
"c. c #4040FC",
"v. c #2024FC",
"b. c #0004FC",
"n. c #0000FC",
"m. c #0000EC",
"M. c #0000E0",
"N. c #0000D4",
"B. c #0000C8",
"V. c #0000BC",
"C. c #0000B0",
"Z. c #0000A4",
"A. c #000098",
"S. c #000088",
"D. c #00007C",
"F. c #000070",
"G. c #000064",
"H. c #000058",
"J. c #00004C",
"K. c #000040",
"L. c #282828",
"P. c #FCE034",
"I. c #FCD424",
"U. c #FCCC18",
"Y. c #FCC008",
"T. c #FCB400",
"R. c #B420FC",
"E. c #A800FC",
"W. c #9800E4",
"Q. c #8000CC",
"!. c #7400B4",
"~. c #60009C",
"^. c #500084",
"/. c #440070",
"(. c #340058",
"). c #280040",
"_. c #FCD8FC",
"`. c #FCB8FC",
"'. c #FC9CFC",
"]. c #FC7CFC",
"[. c #FC5CFC",
"{. c #FC40FC",
"}. c #FC20FC",
"|. c #FC00FC",
" X c #E000E4",
".X c #C800CC",
"XX c #B400B4",
"oX c #9C009C",
"OX c #840084",
"+X c #6C0070",
"@X c #580058",
"#X c #400040",
"$X c #FCE8DC",
"%X c #FCE0D0",
"&X c #FCD8C4",
"*X c #FCD4BC",
"=X c #FCCCB0",
"-X c #FCC4A4",
";X c #FCBC9C",
":X c #FCB890",
">X c #FCB080",
",X c #FCA470",
"<X c #FC9C60",
"1X c #F0945C",
"2X c #E88C58",
"3X c #DC8854",
"4X c #D08050",
"5X c #C87C4C",
"6X c #BC7848",
"7X c #B47044",
"8X c #A86840",
"9X c #A0643C",
"0X c #9C6038",
"qX c #905C34",
"wX c #885830",
"eX c #80502C",
"rX c #744C28",
"tX c #6C4824",
"yX c #5C4020",
"uX c #543C1C",
"iX c #483818",
"pX c #403018",
"aX c #382C14",
"sX c #28200C",
"dX c #600064",
"fX c #006464",
"gX c #006060",
"hX c #00001C",
"jX c #00002C",
"kX c #302410",
"lX c #480048",
"zX c #500050",
"xX c #000034",
"cX c gray11",
"vX c #4C4C4C",
"bX c gray36",
"nX c gray25",
"mX c gray19",
"MX c #343434",
"NX c #D8F4F4",
"BX c #B8E8E8",
"VX c #9CDCDC",
"CX c #74C8C8",
"ZX c #48C0C0",
"AX c #20B4B4",
"SX c #20B0B0",
"DX c #00A4A4",
"FX c #009898",
"GX c #008C8C",
"HX c #008484",
"JX c #007C7C",
"KX c #007878",
"LX c #007474",
"PX c #007070",
"IX c #006C6C",
"UX c #980088",
/* pixels */
"6 6 6 6 &.&.&.6 6 6 6 6 nX  e e 6 6 6 =.&.&.&.=.=.>.  e 6 6 6 6 6 6 6 6 6 &.&.&.&.=.nX  e 6 6 6 6 6 6 6 6 6 &.&.&.=.6 6 6 6 6 6 ",
"MX$ 8 wX-.-.-.vXvX0 $ nXw   e e 6 8 wX8 =.-.-.-.>.1.  e 6 $ =.=.8 7 7 8 qX8 =.=.=.vXw   e 6 nX$ 8 eX8 8 6 6 8 =.-.8 7 8 eXyX0 vX",
"$ $ 7 8 >.-.>.vX0 0 $ vXw   e e 6 7 6 8 =.-.-.>.>.w   e 6 8 -.=.-.7 0X7 7 8 -.=.-.0 w   e 6 eX6 >.bX8 8 8 0XbXvX>.vXvXvX$ $ $ bX",
"$ $ $ $ 8 -.>.bX$ 8 8 bXw   e e 6 qX8 $ -.-.-.>.,.w   e 6 6 -.-.>.vXbX7 7 6 -.-.>.nXw   e 6 6 -.>.$ 7 $ rX$ 0 nXiXnXuX0 0 0 vX$ ",
"nX0 bX$ vXvX,.$ $ 8 8 $ w   e e 6 $ vX0 nX-.>.,.,.w   e 6 7 vX-.,.yX$ bX7 6 8 0 ,.q w   e 6 6 -.,.bXvXvXnXMXpXnXq nXq nXMXpXq nX",
"nX0 bXbX8 8 ,.8 8 8 bXvXw   e e 6 yXyXvX0 pX,.e kXw   e 6 bXyXyX0 $ 8 7 8 vX0 nX1.nXw   e 6 qX-.1.0 bX0 nXpXpXpXnXq nXnXMXq nXnX",
"$ bX8 8 8 vXnX0 $ $ q w w   e e 6 0 $ 0 uXL.kXkXL.w   e 6 $ vX$ $ 8 8 8 $ q nX0 0 0 w   e 6 bX>.eXq nXMXpXkXkXpXq vXyXnXnX0 $ $ ",
"$ bX8 8 vXyXyX$ bXq L.aXw   e e 6 eX8 vXuXpXaXkXw w   e 6 bXeXeX8 8 bX0 MXq q 0 0 q w   e 6 qX,.vXmXL.pXL.e kXpXnXyXnXnXMXq 0 vX",
"vXvXvX$ $ 0 $ bX$ q pXkXw   e e 6 7 7 vXnXnXiXpXaXw   e 6 7 eX$ $ 0 q nXq MXnXq w MXw   e 6 8 7 0 MXpXpXpXL.pXnX0 >.q pXMXnX0 0 ",
"0 nXnXvX$ $ bX$ $ nXpXkXw   e e 6 7 qXvX0 bX0 nXq w   e 6 8 vXnXnX0 nXq iXnX0 MXq q w   e 6 8 8 yXmXpXpXMXnXnX$ bX,.,.pXnXnX0 vX",
"w w w w w w w w w w w w w   e e 6 7 vXvXyX$ 0 nXnXw   e nXw w w 1.1.w 1.1.w w w w w w   e nXw w w w w w w w w w 1.1.1.1.w w w w ",
"                            e e 6 8 vXnX:.$ $ nXq w   e                                 e                                       ",
"e e e e e e e e e e e e e e e e 6 7 eXvX>.bX0 nXMXw   e 6 6 6 6 6 6 6 nX  e e e e e e e e e e e e e e e e e e e e e e e e e e e ",
"e 6 6 6 6 =.&.&.&.6 6 6 6 nX  e 6 8 8 bXbXbX0 MXq w   e 6 L.kXw kXL.pXw   e 6 >.>.6 6 6 6 6 nX  e 6 6 6 =.=.&.6 6 6 >.>.6 6 nX  ",
"e 6 $ 8 7 bX=.=.-.MXq nXq w   e 6 8 eX$ $ 0 q q q w   e 6 kXkXpXL.w L.w   e 6 $ 0 vXvX$ nXMXw   e 6 vX7 8 -.=.-.tXqX7 7 8 $ w   ",
"e 6 $ bXeXvX-.-.q nXnXnXnXw   e 6 bX0 yXnXq mXw MXw   e 6 L.pXnXMXpXq w   e 6 yXq q vX0 nXpXw   e 6 $ 8 8 >.=.>.$ 7 8 7 8 $ w   ",
"e 6 8 eX$ eX-.0 0 0 $ 0 nXw   e 6 0 nXuXq nXq nXq w   e 6 kXpXq MXq yXw   e 6 q MXnX0 nXpXpXw   e 6 $ bX8 rX-.,.wX7 6 7 $ $ w   ",
"e 6 7 $ tXvX>.tXvXbX$ vXq w   e nXw w w w w w w w w   e nXw w w w w w w   e 6 q nXvXvXMXL.kXw   e 6 bXwXvX0 >.bXbX6 7 8 $ $ w   ",
"e 6 7 8 bX$ $ $ $ $ vXq MXw   e                       e                   e 6 yX$ bX$ MXpXpXw   e 6 7 8 0 pX>.vX8 7 7 8 vXq w   ",
"e 6 7 7 bXbX$ yXq nXq nXq w   e e e e e e e e e e e e e e e e e e e e e e e 6 yX$ bXq pXpXq w   e 6 7 $ pXpX,.vX7 7 8 $ MXpXw   ",
"e 6 bX$ $ $ yXMXMXnX0 q q w   e e e 6 6 6 6 >.>.>.6 6 =.-.=.=.=.-.-.=.nX  e 6 w vXvXq pXq MXw   e 6 $ nXuXnX$ 8 8 $ 0 nXpXpXw   ",
"e 6 vXnXyXnXnXq nXyX>.q MXw   e 6 6 q nX$ bXeXrXvX$ 7 6 >.-.-.-.>.-.-.bXw   6 aX$ >.nX,.,.q w   e 6 0 yXq yX$ $ $ q q mXw L.w   ",
"e nXw w w w w w w w 1.w w w   e 6 MXnX$ bXqX8 $ 8 7 7 8 >.>.>.>.,.,.vX7 w   6 L.q >.q 1.1.mXw   e 6 nXyX0 $ $ 0 $ q nXq 1.w w   ",
"e                             e 6 MXvXeX8 bX$ $ 7 8 8 8 >.>.>.>.,.bX8 $ w   nXw w 1.1.1.1.1.w   e 6 tX$ tX$ 0 $ $ yXnXmX,.aXw   ",
"e e e e e e e e e e e e e e e e 6 0 eX7 bXtXyX$ vX$ 0 0 vX0 ,.0 ,.8 8 0 w                       e 6 tX$ >.yXnXyXvXnX1.w >.q w   ",
"e 6 6 6 6 >.,.,.6 6 6 6 6 nX  e 6 nX7 7 >.uX>.>.pXMXq 0 uXnXmXq ,.vXvXyXw   e e e e e cXcXcXcXcXe 6 yXtX>.nXq yXvXq 1.,.,.MXw   ",
"e 6 8 bXbXbX8 8 bX0 vXq pXw   e 6 vX8 eX>.>.>.,.q nXyX$ 0 vXnX0 8 8 $ nXw   e 6 =.&.=.6 6 6 nX  e 6 tX0 ,.q nXnXnXL.q >.,.q w   ",
"e 6 8 8 7 8 7 bX$ $ $ q yXw   e 6 rX7 qX,.>.>.,.vX$ $ $ 0 vX0 $ 8 8 $ q w   e 6 -.-.>.nXpXkXw   e 6 $ bX<.nXpXpXL.e e ,.,.MXw   ",
"e 6 8 8 bXeXeXbXbX$ $ 0 $ w   e 6 rX7 8 tX>.>.vX$ $ $ nXnXq yX$ >.bXq pXw   e 6 -.>.,.vXq L.w   e 6 8 bXvXpXL.pXkXkXpX,.1.aXw   ",
"e 6 8 8 $ vXtXbX$ 7 8 $ $ w   e 6 $ eXtXuX,.>.vX$ $ nXL.pXnXnX$ >.$ q pXw   e 6 >.>.uX0 L.L.w   e 6 8 $ vXL.pXuXpXpXnX1.1.q w   ",
"e 6 8 8 vXnXnX0 $ $ $ q nXw   e 6 vXbXvXbXrX>.vX$ vXpXL.pXnXq 0 ,.yXq L.w   e 6 >.,.nXiXL.pXw   e 6 nXyXnXpXpXpXpXq vXvX1.0 w   ",
"e 6 bX8 $ vXvX$ $ yX-.mXq w   e 6 uXbXbXbXrX,.vX$ q L.pXnXyX0 $ <.nXL.e w   e 6 >.pXuXpXL.pXw   e 6 yX0 vXiXpXMXMXnX$ vX0 q w   ",
"e 6 bXbXbX$ 8 bX0 q >.q nXw   e 6 MXyX$ $ vXvXyXnXMXpXyX$ $ 8 8 $ MXkXe w   e 6 uXyX0 nXnX0 w   e 6 yX$ $ nXnXvXnXyX0 $ nXnXw   ",
"e 6 $ bX$ $ $ 0 yXyX>.,.mXw   e 6 q yXvXvXuXw nXq nXyX$ 8 7 8 $ yXpXL.q w   e 6 yX0 0 0 vXMXw   e 6 yX$ $ vXq nX0 $ vX$ nXq w   ",
"e 6 $ vXnXnXyXyX0 $ >.>.,.w   e 6 w 0 $ 0 iXpXnXyX$ $ $ $ $ q q nXpXkXw w   e 6 $ $ $ vXq kXw   e 6 wX7 8 0 pXq $ $ $ 0 nXMXw   ",
"e 6 qXbX0 0 yXvX$ $ >.>.,.1.  e   nXw w w w w w 1.1.w w w w w w w w w       e 6 $ $ uXw pXL.w   e 6 7 7 wX0 nXnX$ $ yXuXiXMXw   ",
"e 6 qXbXvX0 yX0 0 vXnX>.>.1.  e e                                       e e e 6 0 uXw pXpXpXw   e 6 eXeXeXtXyXyX0 vX>.nXnXnXw   ",
"e 6 8 $ vXvX0 vXnXq aX,.w w   e e e e e e e e e e e e e e e e e e e e e e e e 6 nXMXpXq q ,.w   e 6 vX$ bXbX$ vXnXq ,.pXL.MXw   ",
"e 6 bXeX$ bX$ q pXpXe 1.mXw   e 6 &.&.=.=.6 6 6 6 6 nX  e 6 6 6 6 6 6 6 nX  e 6 $ yXnXq ,.>.w   e 6 bX$ 8 8 $ nXw nX1.pXpXnXw   ",
"e 6 8 8 bXbX$ nXq nXw w nXw   e 6 =.=.-.>.bX$ q vX0 w   e 6 7 8 vXnXnXpXw   e 6 $ $ q w >.>.w   e 6 bX$ 8 8 $ q nXnXnXnXyX$ w   ",
"e 6 bXvXyXnXnXq nXq MXMX0 w   e 6 -.=.8 bXbXbXyX$ bXw   e 6 8 8 $ $ bX0 w   e 6 bX$ q mX>.>.w   e 6 $ $ 8 8 0 pXpXnXvX0 vX$ w   ",
"e 6 nXMXnXvXMXkXw q nXnXnXw   e 6 vX>.vXvX0 vX0 $ 8 w   e 6 7 8 vXnXnXq w   e 6 0 $ yXq nX,.w   e 6 $ $ 8 $ nXL.L.q nX0 q q w   ",
"e 6 nXtX$ tXq L.w pXq nXiXw   e 6 eX8 vXuXq $ $ 8 bXw   e 6 7 $ yXw pXpXw   e 6 $ $ yXiXaXmXw   e 6 bX$ $ vXaXkXpXw nXMXw w w   ",
"e 6 uX$ bX$ w w aXMXnXq MXw   e 6 7 bXnXiXnX8 8 8 0 w   e 6 7 $ MXpXnXnXw   e nXw w w w w w w   e 6 $ $ $ $ pXL.MXnXnXq w mXw   ",
"e nXw w w w w w w w w w w w   e 6 8 bX0 pXyXbX$ $ q w   e nXw w w w w w w   e                   e nXw w w w w w w w w w w w w   ",
"e                             e 6 eXeXuXL.nX$ $ $ q w   e                   e e e e e e e e e e e                               ",
"e e e e e e e e e e e e e e e e 6 8 bXnXpX$ bX$ 0 nXw   e 6 6 6 6 6 =.=.-.6   e 6 6 >.,.,.6 6 ,.>.>.6 6 6 nX  e e e e e e e e e ",
"6 6 6 6 6 6 &.&.&.6 6 nX  e e e nXw w w w w w w w w w   e 6 nXq pXq -.>.>.w   e 6 $ $ bXbXvXyXuXMXnXw w nXw   e 6 6 6 6 6 =.&.-.",
"eXbX0 pXL.nXnX>.>.vXyXw   e e e                         e 6 q yXq nX>.,.vXw   e 6 tXtX$ $ tXyXnXnXyXMXaXmXw   e 6 bX8 bX$ uX-.>.",
"8 $ 0 pXMXyXnX,.1.yXyXw   e e e e e e e e e e e e e e e e 6 pXnXMXq vX1.mXw   e 6 vXvXbXbXyXyX0 q vXiXMX0 w   e 6 nX$ $ 0 0 >.,.",
"bXvXnXq vX$ nX1.nXyXnXw   e 6 6 6 6 6 6 =.&.&.=.6 6 nX  e 6 nXnXq nXuX1.e w   e 6 $ $ bX0 uXmXiXnXvXq q iXw   e 6 yXvX$ 0 0 >.,.",
"0 0 vX$ $ vXq nXyXyXnXw   e 6 uXnX$ vXbX-.=.=.vXvXyXw   e 6 w w w w w w w w   e nXw w w w w w w w w w w w w   e 6 yX$ rXyXvXvX,.",
"nXvX$ 8 $ q nXnXyX$ yXw   e 6 bXbX8 $ 8 8 -.-.vXnXnXw   e                     e                               e 6 $ eX$ $ vX0 ,.",
"uXyX$ bX0 nXnXnX0 $ vXw   e 6 8 7 7 $ bXbX-.-.0 q pXw   e e e e e e e e e e e e e e e e e e e e e e e e e e e e 6 qX7 bXvX0 uXuX",
"uXyX0 q MXnXq nX$ $ 0 w   e 6 8 7 8 nX0 nX-.>.vXnXq w   e 6 6 6 6 6 =.&.&.&.&.&.6 6 6 =.&.&.&.=.6 6 6 6 nX  e e 6 7 6 7 $ yXq q ",
"nXnXiXpXpXpXaXnX0 $ 0 w   e 6 6 7 $ iXw nX>.8 8 nXMXw   e 6 nXeXbX8 8 wX-.-.-.vXuXnX0 ,.>.-.-.>.nXq nX0 w   e e 6 7 6 8 $ nXnXnX",
"0 q w pXq nXnXyXyX0 0 w   e 6 8 $ uXuXpXyX$ 8 bXMXaXw   e 6 tX8 7 8 9X6 -.>.bXvX0 $ $ 0 >.-.-.>.MXnXyXvXw   e e 6 eXeXbXbXvX0 0 ",
"nXpXw q vX$ >.$ 0 vX$ w   e 6 $ $ yXnXnX$ $ 8 0 MXMXw   e 6 7 6 7 7 6 6 -.8 8 bX$ $ $ uXpX>.-.pXpXq nXyXw   e e 6 eX8 8 7 7 bX0 ",
"iXpXMXnXvX$ ,.vXnXyX$ w   e 6 eX$ $ tX$ $ 8 7 $ pXMXw   e 6 7 6 6 bX6 6 ,.8 bXvX0 0 $ 0 w pXnXq nXnXnXnXw   e e 6 bX8 8 bX$ vX0 ",
"pXmXq vX$ $ 1.q w MX0 w   e 6 bXeX$ $ $ $ 8 7 0 w MXw   e 6 7 6 8 bX$ bX8 bX$ $ 0 nXnXq MXnXvXyXyXnXMXq w   e e 6 8 eXeX$ vXvXvX",
"q q yXvX$ vX0 nXpXMX0 w   e 6 eXbXbX0 $ bX$ $ MXw MXw   e 6 8 6 6 $ yXnXq nXyXnXpXw pXpXnXnXvXvXyXnXMXq w   e e 6 $ 8 >.8 $ nXiX",
"nXnXyXvX$ nXyXMXpXq $ w   e 6 $ 8 8 yXnXq aXq q pXnXw   e 6 8 bX8 q pXMXnXnXnXMXL.q pXpXpXpXq yX0 $ yX0 w   e e 6 tXbX>.>.vXnXnX",
"nXnXnX0 nXpXL.L.pXyXbXw   e 6 8 bXtXyXnXMXpXnX0 nXq w   e 6 0 vXq pXL.pXMXnXvXnXpXpXpXpXpXMXnX$ $ $ $ $ w   e e 6 $ -.-.>.vXnXnX",
"w w w w w w w w w w w w   e nXw w w w w w w w w w w w   e nXw w w w w w w w w w w w w w w w w w w w w w w   e e nXw w w w w w w "
};
