/* XPM */
static char *e90050022d2c4046a1be989059c458e8[] = {
/* columns rows colors chars-per-pixel */
"64 64 256 2 ",
"   c black",
".  c #0000A8",
"X  c #00A800",
"o  c #00A8A8",
"O  c #A80000",
"+  c #A800A8",
"@  c #A85400",
"#  c gray66",
"$  c gray33",
"%  c #5454FC",
"&  c #54FC54",
"*  c #54FCFC",
"=  c #FC5454",
"-  c #FC54FC",
";  c #FCFC54",
":  c gray99",
">  c #ECECEC",
",  c gainsboro",
"<  c #D0D0D0",
"1  c #C0C0C0",
"2  c #B4B4B4",
"3  c gray66",
"4  c #989898",
"5  c gray55",
"6  c #7C7C7C",
"7  c gray44",
"8  c #646464",
"9  c gray33",
"0  c #484848",
"q  c gray22",
"w  c #2C2C2C",
"e  c #202020",
"r  c #FC0000",
"t  c #EC0000",
"y  c #E00000",
"u  c #D40000",
"i  c #C80000",
"p  c #BC0000",
"a  c #B00000",
"s  c #A40000",
"d  c #980000",
"f  c #880000",
"g  c #7C0000",
"h  c #700000",
"j  c #640000",
"k  c #580000",
"l  c #4C0000",
"z  c #400000",
"x  c #FCD8D8",
"c  c #FCB8B8",
"v  c #FC9C9C",
"b  c #FC7C7C",
"n  c #FC5C5C",
"m  c #FC4040",
"M  c #FC2020",
"N  c #FC0000",
"B  c #FCA85C",
"V  c #FC9840",
"C  c #FC8820",
"Z  c #FC7800",
"A  c #E46C00",
"S  c #CC6000",
"D  c #B45400",
"F  c #9C4C00",
"G  c #FCFCD8",
"H  c #FCFCB8",
"J  c #FCFC9C",
"K  c #FCFC7C",
"L  c #FCF85C",
"P  c #FCF440",
"I  c #FCF420",
"U  c #FCF400",
"Y  c #E4D800",
"T  c #CCC400",
"R  c #B4AC00",
"E  c #9C9C00",
"W  c #848400",
"Q  c #706C00",
"!  c #585400",
"~  c #404000",
"^  c #D0FC5C",
"/  c #C4FC40",
"(  c #B4FC20",
")  c #A0FC00",
"_  c #90E400",
"`  c #80CC00",
"'  c #74B400",
"]  c #609C00",
"[  c #D8FCD8",
"{  c #BCFCB8",
"}  c #9CFC9C",
"|  c #80FC7C",
" . c #60FC5C",
".. c #40FC40",
"X. c #20FC20",
"o. c #00FC00",
"O. c #00FC00",
"+. c #00EC00",
"@. c #00E000",
"#. c #00D400",
"$. c #04C800",
"%. c #04BC00",
"&. c #04B000",
"*. c #04A400",
"=. c #049800",
"-. c #048800",
";. c #047C00",
":. c #047000",
">. c #046400",
",. c #045800",
"<. c #044C00",
"1. c #044000",
"2. c #D8FCFC",
"3. c #B8FCFC",
"4. c #9CFCFC",
"5. c #7CFCF8",
"6. c #5CFCFC",
"7. c #40FCFC",
"8. c #20FCFC",
"9. c #00FCFC",
"0. c #00E4E4",
"q. c #00CCCC",
"w. c #00B4B4",
"e. c #009C9C",
"r. c #008484",
"t. c #007070",
"y. c #005858",
"u. c #004040",
"i. c #5CBCFC",
"p. c #40B0FC",
"a. c #20A8FC",
"s. c #009CFC",
"d. c #008CE4",
"f. c #007CCC",
"g. c #006CB4",
"h. c #005C9C",
"j. c #D8D8FC",
"k. c #B8BCFC",
"l. c #9C9CFC",
"z. c #7C80FC",
"x. c #5C60FC",
"c. c #4040FC",
"v. c #2024FC",
"b. c #0004FC",
"n. c #0000FC",
"m. c #0000EC",
"M. c #0000E0",
"N. c #0000D4",
"B. c #0000C8",
"V. c #0000BC",
"C. c #0000B0",
"Z. c #0000A4",
"A. c #000098",
"S. c #000088",
"D. c #00007C",
"F. c #000070",
"G. c #000064",
"H. c #000058",
"J. c #00004C",
"K. c #000040",
"L. c #282828",
"P. c #FCE034",
"I. c #FCD424",
"U. c #FCCC18",
"Y. c #FCC008",
"T. c #FCB400",
"R. c #B420FC",
"E. c #A800FC",
"W. c #9800E4",
"Q. c #8000CC",
"!. c #7400B4",
"~. c #60009C",
"^. c #500084",
"/. c #440070",
"(. c #340058",
"). c #280040",
"_. c #FCD8FC",
"`. c #FCB8FC",
"'. c #FC9CFC",
"]. c #FC7CFC",
"[. c #FC5CFC",
"{. c #FC40FC",
"}. c #FC20FC",
"|. c #FC00FC",
" X c #E000E4",
".X c #C800CC",
"XX c #B400B4",
"oX c #9C009C",
"OX c #840084",
"+X c #6C0070",
"@X c #580058",
"#X c #400040",
"$X c #FCE8DC",
"%X c #FCE0D0",
"&X c #FCD8C4",
"*X c #FCD4BC",
"=X c #FCCCB0",
"-X c #FCC4A4",
";X c #FCBC9C",
":X c #FCB890",
">X c #FCB080",
",X c #FCA470",
"<X c #FC9C60",
"1X c #F0945C",
"2X c #E88C58",
"3X c #DC8854",
"4X c #D08050",
"5X c #C87C4C",
"6X c #BC7848",
"7X c #B47044",
"8X c #A86840",
"9X c #A0643C",
"0X c #9C6038",
"qX c #905C34",
"wX c #885830",
"eX c #80502C",
"rX c #744C28",
"tX c #6C4824",
"yX c #5C4020",
"uX c #543C1C",
"iX c #483818",
"pX c #403018",
"aX c #382C14",
"sX c #28200C",
"dX c #600064",
"fX c #006464",
"gX c #006060",
"hX c #00001C",
"jX c #00002C",
"kX c #302410",
"lX c #480048",
"zX c #500050",
"xX c #000034",
"cX c gray11",
"vX c #4C4C4C",
"bX c gray36",
"nX c gray25",
"mX c gray19",
"MX c #343434",
"NX c #D8F4F4",
"BX c #B8E8E8",
"VX c #9CDCDC",
"CX c #74C8C8",
"ZX c #48C0C0",
"AX c #20B4B4",
"SX c #20B0B0",
"DX c #00A4A4",
"FX c #009898",
"GX c #008C8C",
"HX c #008484",
"JX c #007C7C",
"KX c #007878",
"LX c #007474",
"PX c #007070",
"IX c #006C6C",
"UX c #980088",
/* pixels */
"&.&.&.&.&.&.&.6 6 6 6 6 nX  e e 6 =.&.&.&.&.&.=.=.>.  e 6 6 6 6 =.&.&.&.&.&.&.=.&.&.nX  e &.&.6 &.&.&.&.&.=.6 6 6 6 6 6 6 6 6 6 ",
"MX=.=.=.;.;.;.vXvX0 $ nXw   e e 6 8 =.=.=.;.;.;.>.1.  e 6 $ eXbX8 =.=.8 =.=.=.$ ;.;.w   e &.=.;.=.;.=.=.;.6 7 8 7 8 7 8 eXyX0 vX",
"$ >.7 >.>.;.>.vX0 0 $ vXw   e e 6 7 ;.=.=.;.;.>.>.w   e 6 8 7 8 7 =.;.7 ;.=.;.bX;.>.w   e 6 ;.>.;.;.8 ;.>.0XbX$ eX$ vXvX$ $ $ bX",
"$ $ $ ;.;.;.>.bX$ 8 8 bXw   e e 6 qX8 =.;.;.;.>.,.w   e 6 6 7 wXvX;.;.7 ;.;.>.vX>.,.w   e 6 ;.6 ;.;.7 ;.>.$ 0 nXiXnXuX0 0 0 vX$ ",
"nX0 bX;.;.$ ,.$ $ 8 8 $ w   e e 6 $ vX;.nX;.>.,.1.w   e 6 7 $ 0 yX;.>.bX>.;.,.0 ,.1.w   e 6 >.7 bX>.vX;.,.MXpXnXq nXq nXMXpXq nX",
"nX0 bX;.;.8 ,.8 8 8 bXvXw   e e 6 yXyX;.0 ;.,.1.kXw   e 6 bXyXyX0 $ >.7 8 >.,.nXnX1.w   e 6 qX8 bX>.bX;.1.pXpXpX;.q nXnXMXq nXnX",
"$ bX8 ;.>.$ nX0 $ $ q w w   e e 6 0 $ >.uX,.kX1.L.w   e 6 =.vX$ $ 8 8 8 $ ,.nX0 0 1.w   e 6 bX7 eXq nX>.pXkXkXpX>.vXyXnXnX0 $ $ ",
"$ bX8 >.>.yXyX$ bXq L.aXw   e e 6 eX8 >.uXpXaXkXw w   e 6 ;.eXeX8 8 bX0 MX1.q 0 0 q w   e 6 qX7 $ mXL.,.L.e kX>.,.yXnXnXMXq 0 vX",
"vXvXvX$ ,.0 $ bX$ q pXkXw   e e 6 7 7 ,.nXnXiXpXaXw   e 6 ;.eX$ $ 0 q nXq MXnXq w MXw   e 6 8 7 0 MXpXpXpXL.pX>.,.vXq pXMXnX0 0 ",
"0 nXnXvX$ $ bX$ $ nXpXkXw   e e 6 7 qXvX0 bX0 nXq w   e 6 >.vXnXnX0 nXq iXnX0 MXq q w   e 6 8 8 yXmXpXpXMXnXnX,.,.yXpXpXnXnX0 vX",
"w w w w w w w w w w w w w   e e 6 7 vXvXyX;.0 nXnXw   e nXw w w w w w w w w w w w w w   e nXw w w w w w w w 1.1.1.1.w w w w w w ",
"                            e e 6 8 vXnXyX;.$ nXq w   e                                 e                                       ",
"e e e e e e e e e e e e e e e e 6 7 eXvXvX>.0 nXMXw   e 6 6 6 6 &.&.=.>.  e e e e e e e e e e e e e e e e e e e e e e e e e e e ",
"e 6 6 6 =.&.&.&.&.&.&.&.&.nX  e 6 8 8 bXbXbX0 MXq w   e 6 L.kXw ;.=.;.1.  e 6 6 &.&.&.&.=.6 nX  e =.&.&.&.&.&.&.&.6 =.&.&.&.nX  ",
"e 6 $ 8 7 =.=.;.;.;.;.>.>.w   e 6 8 eX$ $ 0 q q q w   e 6 kXkXpX>.;.;.1.  e 6 $ 0 =.=.;.nXMXw   e 6 =.=.=.=.=.=.tXqX7 ;.;.=.w   ",
"e 6 $ bXeX;.;.>.;.>.>.>.>.w   e 6 bX0 yXnXq mXw MXw   e 6 L.pXnX>.pX>.w   e 6 yXq >.;.;.,.pXw   e 6 ;.;.>.>.>.;.$ 7 8 >.>.;.w   ",
"e 6 8 eX$ ;.rX>.;.>.$ >.,.w   e 6 0 nXuXq nXq nXq w   e 6 kXpXq MXq ,.w   e 6 q ;.nX;.>.,.pXw   e 6 ;.>.>.rX$ >.wX7 6 7 >.>.w   ",
"e 6 7 $ tX>.rXtX>.;.$ ,.1.w   e nXw w w w w w w w w   e nXw w w w w 1.w   e 6 q ;.vX>.,.1.kXw   e 6 ;.>.>.0 vX>.bX6 7 8 $ >.1.  ",
"e 6 7 8 bX>.$ $ $ ;.vX1.MXw   e                       e                   e 6 yX>.bX>.,.1.pXw   e 6 7 >.>.pXq >.8 7 7 8 vX>.1.  ",
"e 6 7 7 bXbX$ yXq ,.q nXq w   e e e e e e e e e e e e e e e e e e e e e e e 6 yX>.bXq 1.pXq w   e 6 7 >.>.pXyX,.7 7 8 $ MX>.1.  ",
"e 6 bX$ $ $ yXMXMXnX0 q q w   e e e &.&.&.&.&.&.&.6 &.=.;.=.=.=.;.;.=.nX  e 6 w vXvXq 1.q MXw   e 6 $ ;.>.nX$ 8 8 ;.0 nXpX>.w   ",
"e 6 vXnXyXnXnXq nXyXvXq MXw   e &.&.=.=.=.=.=.=.;.=.;.>.>.;.;.;.>.;.;.;.>.  6 aX$ uXnXMXq q w   e 6 0 ;.>.yX$ $ $ ;.q mXw ,.w   ",
"e nXw w w w w w w w w w w w   e &.;.>.>.>.;.;.;.>.>.>.>.>.>.>.>.,.,.;.>.,.  6 L.q nXq q MXMXw   e 6 nX,.>.$ $ 0 $ >.nXq w w w   ",
"e                             e &.>.>.>.>.;.>.;.,.8 >.,.>.>.>.>.,.bX,.,.1.  nXw w w w w w w w   e 6 tX$ ,.$ 0 $ $ yXnXMXaXaXw   ",
"e e e e e e e e e e e e e e e e &.>.>.>.>.;.,.;.,.$ >.nX>.>.,.>.,.8 8 ,.1.                      e 6 tX$ bXyXnXyXvXnXnXw q q w   ",
"e &.&.&.&.=.=.6 6 6 6 6 6 nX  e &.>.,.7 $ ;.,.;.,.MX>.vX>.>.MX>.,.$ $ ,.1.  e e e e e cXcXcXcXcXe 6 yXtX0 nXq yXvXq q q iXMXw   ",
"e =.=.;.;.;.8 8 bX0 vXq pXw   e &.>.8 eXvX>.nX;.,.nX>.;.>.>.nX>.,.8 $ 1.w   e 6 =.=.&.6 6 6 nX  e 6 tX0 vXq nXnXnXL.q q nXq w   ",
"e =.;.;.7 8 7 bX$ $ $ q yXw   e =.,.7 qX$ 0 0 ;.,.$ >.>.>.,.0 >.,.8 $ q w   e 6 q ;.=.;.pXkXw   e 6 $ bXvXnXpXpXL.e L.aXw MXw   ",
"e =.;.8 bXeXeXbXbX$ $ 0 $ w   e >.1.7 8 tXnXyX>.$ $ ,.>.>.,.yX>.,.bXq pXw   e 6 tX>.=.>.q L.w   e 6 8 bX0 pXL.pXkXkXpXkXe aXw   ",
"e =.;.8 $ vXtXbX$ 7 8 $ $ w   e 6 1.eXtXyXvX0 $ $ $ nX>.>.nXnX>.,.$ q pXw   e 6 rXeX;.,.L.L.w   e 6 8 $ vXL.pXuXpXpXnXiXiXq w   ",
"e =.>.8 vXnXnX0 $ $ =.>.nXw   e 6 vXbXvXbXrX$ $ $ vXpX,.>.nXq >.$ yXq L.w   e 6 nXyX>.iXL.pXw   e 6 nXyXnXpXpXpXpXq $ ,.nX0 w   ",
"e ;.,.8 $ vXvX$ $ =.;.>.q w   e 6 uXbXbXbXrX0 $ $ q L.pX>.yX0 $ $ nXL.e w   e 6 MXiX>.pXL.pXw   e 6 yX0 vXiXpXMXMXnX$ >.0 q w   ",
"e >.bXbXbX;.8 bX>.>.>.,.,.w   e 6 MXyX$ $ vXvXyXnXMXpXyX,.$ 8 8 $ MXkXe w   e 6 uXyX,.nXnX0 w   e 6 yX$ ;.nXnXvXnXyX0 ,.nXnXw   ",
"e 6 $ bX$ >.$ 0 ,.>.>.,.,.w   e 6 q yXvXvXuXw nXq nXyX$ 8 7 8 $ yXpXL.q w   e 6 yX0 0 0 ;.,.w   e 6 yX$ >.vXq nX0 $ vX1.nXq w   ",
"e 6 $ vXnX,.yXyX0 $ >.>.,.w   e 6 w 0 $ 0 iXpXnXyX$ $ $ $ $ q q nXpXkXw w   e 6 $ $ $ ;.>.<.w   e 6 wX7 >.0 pXq $ $ $ 0 nXMXw   ",
"e 6 qXbX0 1.yXvX$ $ >.>.,.1.  e   nXw w w w w w w w w w w w w w w w w       e 6 $ $ >.>.>.<.w   e 6 7 7 ,.0 nXnX$ $ yXuXiXMXw   ",
"e 6 qXbXvX0 yX0 0 vX>.>.>.1.  e e                                       e e e 6 0 uX,.>.,.pXw   e 6 eXeXeXtXyXyX;.vXq nXnXnXw   ",
"e 6 8 $ vXvX0 vXnXq >.,.>.1.  e e e e e e e e e e e e e e e e e e e e e e e e 6 nXMX,.,.<.MXw   e 6 vX$ bXbX$ ;.>.q pXpXL.MXw   ",
"e 6 bXeX$ bX$ q pXpX>.1.>.1.  e &.&.&.6 6 6 =.&.&.6 nX  e 6 &.&.=.=.6 6 nX  e 6 $ yX,.<.1.aXw   e 6 bX$ 8 8 $ >.>.nXMXpXpXnXw   ",
"e 6 8 8 bXbX$ nXq nX>.,.>.1.  e &.=.=.=.bXbX;.=.=.=.w   e 6 =.=.;.>.nXpXw   e 6 $ $ <.<.q mXw   e 6 bX$ 8 8 $ >.>.nXnXnXyX$ w   ",
"e 6 bXvXyXnXnXq nXq >.,.>.1.  e =.;.>.8 bXbX>.;.;.;.w   e 6 ;.=.$ $ bX0 w   e 6 bX$ q 1.w q w   e 6 $ $ 8 8 0 >.,.>.vX0 vX$ w   ",
"e 6 nXMXnXvXMXkXw q >.,.1.w   e =.;.>.$ vX0 >.;.;.>.w   e 6 7 >.vXnXnXq w   e 6 0 $ yXq nXMXw   e 6 $ $ 8 $ nX>.L.>.>.0 q q w   ",
"e 6 nXtX$ tXq L.w pX>.,.iXw   e 6 ;.>.vXuXq $ >.;.,.w   e 6 7 $ yXw pX,.w   e 6 $ $ yXiXaXmXw   e 6 bX$ $ vXaX>.pX,.,.MXw w w   ",
"e 6 uX$ bX$ w w aXMX,.1.MXw   e 6 ;.>.nXiXnX8 1.>.0 w   e 6 7 $ MXpXnX,.1.  e nXw w w w w w w   e 6 $ $ $ $ pX>.MX1.1.q w mXw   ",
"e nXw w w w w w w w w w w w   e 6 ;.>.0 pXyXbX$ $ q w   e nXw w w w w 1.1.  e                   e nXw w w w w 1.1.1.1.1.w w w   ",
"e                             e 6 >.,.uXL.nX$ $ $ q w   e                   e e e e e e e e e e e                               ",
"e e e e e e e e e e e e e e e e 6 8 bXnXpX$ bX$ 0 nXw   e 6 &.=.=.=.=.6 6 6   e 6 &.&.&.6 6 &.&.&.&.6 6 6 nX  e e e e e e e e e ",
"6 =.&.&.&.6 6 6 &.&.=.nX  e e e nXw w w w w w w w w w   e 6 nX;.;.;.,.$ $ w   e 6 $ ;.=.bXvX=.=.=.=.w w nXw   e 6 6 =.=.=.=.6 6 ",
"eX;.;.>.>.nXnXnX;.;.yXw   e e e                         e 6 q >.>.>.$ bX$ w   e 6 tXtX;.$ tX;.;.;.>.MXaXmXw   e 6 bX8 >.;.;.tXvX",
"8 ;.>.,.1.yXnXq >.;.yXw   e e e e e e e e e e e e e e e e 6 pX>.,.q $ $ MXw   e 6 vXvX;.bXyXyX;.>.vXiXMX0 w   e 6 nX$ $ >.>.vXbX",
"bX>.>.1.vX$ nXnX>.;.nXw   e 6 6 &.&.=.&.&.=.6 &.&.=.nX  e 6 nXnX,.nXyXnXL.w   e 6 $ $ bX0 uXmX>.nXvXq q iXw   e 6 yXvX$ 0 0 $ $ ",
"0 >.,.$ $ vXq nX,.>.nXw   e 6 uX=.=.;.=.=.;.bX=.=.;.w   e 6 w w w w w w w w   e nXw w w w w w w w w w w w w   e 6 yX$ rXyXvX$ 0 ",
"nX>.,.8 $ q nXnX1.>.yXw   e 6 bX;.;.$ ;.;.>.>.;.>.>.w   e                     e                               e 6 $ eX$ $ $ 0 nX",
"uX>.$ bX0 nXnXnX0 >.vXw   e 6 8 ;.;.$ ;.;.$ >.>.,.1.w   e e e e e e e e e e e e e e e e e e e e e e e e e e e e 6 qX7 bXvX0 uXuX",
"uX>.0 q MXnXq nX$ ,.0 w   e 6 8 ;.>.nX;.>.0 ;.$ 1.1.w   e 6 6 =.=.&.&.&.&.&.&.=.=.=.&.&.&.&.&.&.&.&.&.=.nX  e e 6 7 6 7 $ yXq q ",
"nX,.iXpXpXpX>.nX0 $ 0 w   e 6 6 ;.$ iX>.>.0 ,.8 1.MXw   e 6 nXeXbX8 ;.;.;.;.>.,.,.,.>.;.;.;.;.;.;.;.;.>.w   e e 6 7 6 8 $ nXnXnX",
"0 1.w pXq nX,.>.yX0 0 w   e 6 8 $ uXuX>.yX$ ,.bXMXaXw   e 6 tX8 7 8 ;.>.;.;.,.$ 0 $ >.;.;.;.>.;.vX;.>.,.w   e e 6 eX;.bXbXvX0 0 ",
"nXpXw q vX$ ,.>.0 vX$ w   e 6 $ $ yXnX,.$ $ 8 0 MXMXw   e 6 7 6 7 7 ;.7 ;.>.,.bX$ $ $ >.;.;.,.;.8 ;.,.,.w   e e 6 eX;.8 7 7 bX0 ",
"iXpXMXnXvX$ ,.,.nXyX$ w   e 6 eX$ $ tX$ $ 8 7 $ pXMXw   e 6 7 6 6 bX,.6 ;.,.bX$ 0 0 $ 0 ;.>.,.;.=.;.,.nXw   e e &.bX;.;.bX$ vX0 ",
"pXmXq vX$ $ 1.,.w MX0 w   e 6 bXeX$ $ $ $ 8 7 0 w MXw   e 6 7 6 8 bX$ bX;.,.$ $ 0 nXnXq ;.,.vX>.,.;.,.q w   e e &.=.;.>.$ vXvXvX",
"q q yXvX$ vX0 1.pXMX0 w   e 6 eXbXbX0 $ bX$ $ MXw MXw   e 6 8 6 6 $ yXnX;.nXyXnXpXw pXpX;.,.vX,.yX>.,.q w   e e &.=.>.>.8 $ nXiX",
"nXnXyXvX$ nXyXMXpXq $ w   e 6 $ 8 8 yXnXq aXq q pXnXw   e 6 8 bX8 q pXMX>.nXnXMXL.q pXpX>.pXq yX0 $ 1.0 w   e e &.=.>.>.;.vXnXnX",
"nXnXnX0 nXpXL.L.pXyXbXw   e 6 8 bXtXyXnXMXpXnX0 nXq w   e 6 0 vXq pXL.pXMXnXvXnXpXpXpXpXpXMXnX$ $ $ $ $ w   e e &.;.;.>.>.vXnXnX",
"w w w w w w w w w w w w   e nXw w w w w w w w w w w w   e nXw w w w w w w w w w w w w w w w w w w w w w w   e e nXw w w w w w w "
};
